2020-04-19 12:01:17,721 b''
2020-04-19 12:01:17,721 b"ffmpeg version 2.8.15-0ubuntu0.16.04.1 Copyright (c) 2000-2018 the FFmpeg developers\n  built with gcc 5.4.0 (Ubuntu 5.4.0-6ubuntu1~16.04.10) 20160609\n  configuration: --prefix=/usr --extra-version=0ubuntu0.16.04.1 --build-suffix=-ffmpeg --toolchain=hardened --libdir=/usr/lib/x86_64-linux-gnu --incdir=/usr/include/x86_64-linux-gnu --cc=cc --cxx=g++ --enable-gpl --enable-shared --disable-stripping --disable-decoder=libopenjpeg --disable-decoder=libschroedinger --enable-avresample --enable-avisynth --enable-gnutls --enable-ladspa --enable-libass --enable-libbluray --enable-libbs2b --enable-libcaca --enable-libcdio --enable-libflite --enable-libfontconfig --enable-libfreetype --enable-libfribidi --enable-libgme --enable-libgsm --enable-libmodplug --enable-libmp3lame --enable-libopenjpeg --enable-libopus --enable-libpulse --enable-librtmp --enable-libschroedinger --enable-libshine --enable-libsnappy --enable-libsoxr --enable-libspeex --enable-libssh --enable-libtheora --enable-libtwolame --enable-libvorbis --enable-libvpx --enable-libwavpack --enable-libwebp --enable-libx265 --enable-libxvid --enable-libzvbi --enable-openal --enable-opengl --enable-x11grab --enable-libdc1394 --enable-libiec61883 --enable-libzmq --enable-frei0r --enable-libx264 --enable-libopencv\n  libavutil      54. 31.100 / 54. 31.100\n  libavcodec     56. 60.100 / 56. 60.100\n  libavformat    56. 40.101 / 56. 40.101\n  libavdevice    56.  4.100 / 56.  4.100\n  libavfilter     5. 40.101 /  5. 40.101\n  libavresample   2.  1.  0 /  2.  1.  0\n  libswscale      3.  1.101 /  3.  1.101\n  libswresample   1.  2.101 /  1.  2.101\n  libpostproc    53.  3.100 / 53.  3.100\nInput #0, mov,mp4,m4a,3gp,3g2,mj2, from './audios/1563895592_127_387.mp3':\n  Metadata:\n    major_brand     : 3gp4\n    minor_version   : 0\n    compatible_brands: isom3gp4\n    creation_time   : 2019-07-23 15:26:12\n  Duration: 00:00:05.31, start: 0.000000, bitrate: 100 kb/s\n    Stream #0:0(eng): Audio: aac (LC) (mp4a / 0x6134706D), 16000 Hz, mono, fltp, 96 kb/s (default)\n    Metadata:\n      creation_time   : 2019-07-23 15:26:12\n      handler_name    : SoundHandle\nOutput #0, wav, to './wavs/1563895592_127_387.temp.wav':\n  Metadata:\n    major_brand     : 3gp4\n    minor_version   : 0\n    compatible_brands: isom3gp4\n    ISFT            : Lavf56.40.101\n    Stream #0:0(eng): Audio: pcm_s16le ([1][0][0][0] / 0x0001), 16000 Hz, mono, s16, 256 kb/s (default)\n    Metadata:\n      creation_time   : 2019-07-23 15:26:12\n      handler_name    : SoundHandle\n      encoder         : Lavc56.60.100 pcm_s16le\nStream mapping:\n  Stream #0:0 -> #0:0 (aac (native) -> pcm_s16le (native))\nPress [q] to stop, [?] for help\nsize=     166kB time=00:00:05.31 bitrate= 256.1kbits/s    \nvideo:0kB audio:166kB subtitle:0kB other streams:0kB global headers:0kB muxing overhead: 0.045887%\n"
2020-04-19 12:01:20,481 b''
2020-04-19 12:01:20,481 b"ffmpeg version 2.8.15-0ubuntu0.16.04.1 Copyright (c) 2000-2018 the FFmpeg developers\n  built with gcc 5.4.0 (Ubuntu 5.4.0-6ubuntu1~16.04.10) 20160609\n  configuration: --prefix=/usr --extra-version=0ubuntu0.16.04.1 --build-suffix=-ffmpeg --toolchain=hardened --libdir=/usr/lib/x86_64-linux-gnu --incdir=/usr/include/x86_64-linux-gnu --cc=cc --cxx=g++ --enable-gpl --enable-shared --disable-stripping --disable-decoder=libopenjpeg --disable-decoder=libschroedinger --enable-avresample --enable-avisynth --enable-gnutls --enable-ladspa --enable-libass --enable-libbluray --enable-libbs2b --enable-libcaca --enable-libcdio --enable-libflite --enable-libfontconfig --enable-libfreetype --enable-libfribidi --enable-libgme --enable-libgsm --enable-libmodplug --enable-libmp3lame --enable-libopenjpeg --enable-libopus --enable-libpulse --enable-librtmp --enable-libschroedinger --enable-libshine --enable-libsnappy --enable-libsoxr --enable-libspeex --enable-libssh --enable-libtheora --enable-libtwolame --enable-libvorbis --enable-libvpx --enable-libwavpack --enable-libwebp --enable-libx265 --enable-libxvid --enable-libzvbi --enable-openal --enable-opengl --enable-x11grab --enable-libdc1394 --enable-libiec61883 --enable-libzmq --enable-frei0r --enable-libx264 --enable-libopencv\n  libavutil      54. 31.100 / 54. 31.100\n  libavcodec     56. 60.100 / 56. 60.100\n  libavformat    56. 40.101 / 56. 40.101\n  libavdevice    56.  4.100 / 56.  4.100\n  libavfilter     5. 40.101 /  5. 40.101\n  libavresample   2.  1.  0 /  2.  1.  0\n  libswscale      3.  1.101 /  3.  1.101\n  libswresample   1.  2.101 /  1.  2.101\n  libpostproc    53.  3.100 / 53.  3.100\nInput #0, mov,mp4,m4a,3gp,3g2,mj2, from './audios/1563895632_127_307.mp3':\n  Metadata:\n    major_brand     : 3gp4\n    minor_version   : 0\n    compatible_brands: isom3gp4\n    creation_time   : 2019-07-23 15:27:02\n  Duration: 00:00:04.48, start: 0.000000, bitrate: 101 kb/s\n    Stream #0:0(eng): Audio: aac (LC) (mp4a / 0x6134706D), 16000 Hz, mono, fltp, 96 kb/s (default)\n    Metadata:\n      creation_time   : 2019-07-23 15:27:02\n      handler_name    : SoundHandle\nOutput #0, wav, to './wavs/1563895632_127_307.temp.wav':\n  Metadata:\n    major_brand     : 3gp4\n    minor_version   : 0\n    compatible_brands: isom3gp4\n    ISFT            : Lavf56.40.101\n    Stream #0:0(eng): Audio: pcm_s16le ([1][0][0][0] / 0x0001), 16000 Hz, mono, s16, 256 kb/s (default)\n    Metadata:\n      creation_time   : 2019-07-23 15:27:02\n      handler_name    : SoundHandle\n      encoder         : Lavc56.60.100 pcm_s16le\nStream mapping:\n  Stream #0:0 -> #0:0 (aac (native) -> pcm_s16le (native))\nPress [q] to stop, [?] for help\nsize=     140kB time=00:00:04.48 bitrate= 256.1kbits/s    \nvideo:0kB audio:140kB subtitle:0kB other streams:0kB global headers:0kB muxing overhead: 0.054408%\n"
2020-04-19 12:01:22,078 b''
2020-04-19 12:01:22,078 b"ffmpeg version 2.8.15-0ubuntu0.16.04.1 Copyright (c) 2000-2018 the FFmpeg developers\n  built with gcc 5.4.0 (Ubuntu 5.4.0-6ubuntu1~16.04.10) 20160609\n  configuration: --prefix=/usr --extra-version=0ubuntu0.16.04.1 --build-suffix=-ffmpeg --toolchain=hardened --libdir=/usr/lib/x86_64-linux-gnu --incdir=/usr/include/x86_64-linux-gnu --cc=cc --cxx=g++ --enable-gpl --enable-shared --disable-stripping --disable-decoder=libopenjpeg --disable-decoder=libschroedinger --enable-avresample --enable-avisynth --enable-gnutls --enable-ladspa --enable-libass --enable-libbluray --enable-libbs2b --enable-libcaca --enable-libcdio --enable-libflite --enable-libfontconfig --enable-libfreetype --enable-libfribidi --enable-libgme --enable-libgsm --enable-libmodplug --enable-libmp3lame --enable-libopenjpeg --enable-libopus --enable-libpulse --enable-librtmp --enable-libschroedinger --enable-libshine --enable-libsnappy --enable-libsoxr --enable-libspeex --enable-libssh --enable-libtheora --enable-libtwolame --enable-libvorbis --enable-libvpx --enable-libwavpack --enable-libwebp --enable-libx265 --enable-libxvid --enable-libzvbi --enable-openal --enable-opengl --enable-x11grab --enable-libdc1394 --enable-libiec61883 --enable-libzmq --enable-frei0r --enable-libx264 --enable-libopencv\n  libavutil      54. 31.100 / 54. 31.100\n  libavcodec     56. 60.100 / 56. 60.100\n  libavformat    56. 40.101 / 56. 40.101\n  libavdevice    56.  4.100 / 56.  4.100\n  libavfilter     5. 40.101 /  5. 40.101\n  libavresample   2.  1.  0 /  2.  1.  0\n  libswscale      3.  1.101 /  3.  1.101\n  libswresample   1.  2.101 /  1.  2.101\n  libpostproc    53.  3.100 / 53.  3.100\nInput #0, mov,mp4,m4a,3gp,3g2,mj2, from './audios/1563895663_127_62.mp3':\n  Metadata:\n    major_brand     : 3gp4\n    minor_version   : 0\n    compatible_brands: isom3gp4\n    creation_time   : 2019-07-23 15:27:34\n  Duration: 00:00:02.94, start: 0.000000, bitrate: 104 kb/s\n    Stream #0:0(eng): Audio: aac (LC) (mp4a / 0x6134706D), 16000 Hz, mono, fltp, 96 kb/s (default)\n    Metadata:\n      creation_time   : 2019-07-23 15:27:34\n      handler_name    : SoundHandle\nOutput #0, wav, to './wavs/1563895663_127_62.temp.wav':\n  Metadata:\n    major_brand     : 3gp4\n    minor_version   : 0\n    compatible_brands: isom3gp4\n    ISFT            : Lavf56.40.101\n    Stream #0:0(eng): Audio: pcm_s16le ([1][0][0][0] / 0x0001), 16000 Hz, mono, s16, 256 kb/s (default)\n    Metadata:\n      creation_time   : 2019-07-23 15:27:34\n      handler_name    : SoundHandle\n      encoder         : Lavc56.60.100 pcm_s16le\nStream mapping:\n  Stream #0:0 -> #0:0 (aac (native) -> pcm_s16le (native))\nPress [q] to stop, [?] for help\nsize=      92kB time=00:00:02.94 bitrate= 256.2kbits/s    \nvideo:0kB audio:92kB subtitle:0kB other streams:0kB global headers:0kB muxing overhead: 0.082796%\n"
2020-04-19 12:01:23,303 b''
2020-04-19 12:01:23,303 b"ffmpeg version 2.8.15-0ubuntu0.16.04.1 Copyright (c) 2000-2018 the FFmpeg developers\n  built with gcc 5.4.0 (Ubuntu 5.4.0-6ubuntu1~16.04.10) 20160609\n  configuration: --prefix=/usr --extra-version=0ubuntu0.16.04.1 --build-suffix=-ffmpeg --toolchain=hardened --libdir=/usr/lib/x86_64-linux-gnu --incdir=/usr/include/x86_64-linux-gnu --cc=cc --cxx=g++ --enable-gpl --enable-shared --disable-stripping --disable-decoder=libopenjpeg --disable-decoder=libschroedinger --enable-avresample --enable-avisynth --enable-gnutls --enable-ladspa --enable-libass --enable-libbluray --enable-libbs2b --enable-libcaca --enable-libcdio --enable-libflite --enable-libfontconfig --enable-libfreetype --enable-libfribidi --enable-libgme --enable-libgsm --enable-libmodplug --enable-libmp3lame --enable-libopenjpeg --enable-libopus --enable-libpulse --enable-librtmp --enable-libschroedinger --enable-libshine --enable-libsnappy --enable-libsoxr --enable-libspeex --enable-libssh --enable-libtheora --enable-libtwolame --enable-libvorbis --enable-libvpx --enable-libwavpack --enable-libwebp --enable-libx265 --enable-libxvid --enable-libzvbi --enable-openal --enable-opengl --enable-x11grab --enable-libdc1394 --enable-libiec61883 --enable-libzmq --enable-frei0r --enable-libx264 --enable-libopencv\n  libavutil      54. 31.100 / 54. 31.100\n  libavcodec     56. 60.100 / 56. 60.100\n  libavformat    56. 40.101 / 56. 40.101\n  libavdevice    56.  4.100 / 56.  4.100\n  libavfilter     5. 40.101 /  5. 40.101\n  libavresample   2.  1.  0 /  2.  1.  0\n  libswscale      3.  1.101 /  3.  1.101\n  libswresample   1.  2.101 /  1.  2.101\n  libpostproc    53.  3.100 / 53.  3.100\nInput #0, mov,mp4,m4a,3gp,3g2,mj2, from './audios/1563895706_127_271.mp3':\n  Metadata:\n    major_brand     : 3gp4\n    minor_version   : 0\n    compatible_brands: isom3gp4\n    creation_time   : 2019-07-23 15:28:17\n  Duration: 00:00:04.86, start: 0.000000, bitrate: 101 kb/s\n    Stream #0:0(eng): Audio: aac (LC) (mp4a / 0x6134706D), 16000 Hz, mono, fltp, 96 kb/s (default)\n    Metadata:\n      creation_time   : 2019-07-23 15:28:17\n      handler_name    : SoundHandle\nOutput #0, wav, to './wavs/1563895706_127_271.temp.wav':\n  Metadata:\n    major_brand     : 3gp4\n    minor_version   : 0\n    compatible_brands: isom3gp4\n    ISFT            : Lavf56.40.101\n    Stream #0:0(eng): Audio: pcm_s16le ([1][0][0][0] / 0x0001), 16000 Hz, mono, s16, 256 kb/s (default)\n    Metadata:\n      creation_time   : 2019-07-23 15:28:17\n      handler_name    : SoundHandle\n      encoder         : Lavc56.60.100 pcm_s16le\nStream mapping:\n  Stream #0:0 -> #0:0 (aac (native) -> pcm_s16le (native))\nPress [q] to stop, [?] for help\nsize=     152kB time=00:00:04.86 bitrate= 256.1kbits/s    \nvideo:0kB audio:152kB subtitle:0kB other streams:0kB global headers:0kB muxing overhead: 0.050113%\n"
2020-04-19 12:01:25,515 b''
2020-04-19 12:01:25,515 b"ffmpeg version 2.8.15-0ubuntu0.16.04.1 Copyright (c) 2000-2018 the FFmpeg developers\n  built with gcc 5.4.0 (Ubuntu 5.4.0-6ubuntu1~16.04.10) 20160609\n  configuration: --prefix=/usr --extra-version=0ubuntu0.16.04.1 --build-suffix=-ffmpeg --toolchain=hardened --libdir=/usr/lib/x86_64-linux-gnu --incdir=/usr/include/x86_64-linux-gnu --cc=cc --cxx=g++ --enable-gpl --enable-shared --disable-stripping --disable-decoder=libopenjpeg --disable-decoder=libschroedinger --enable-avresample --enable-avisynth --enable-gnutls --enable-ladspa --enable-libass --enable-libbluray --enable-libbs2b --enable-libcaca --enable-libcdio --enable-libflite --enable-libfontconfig --enable-libfreetype --enable-libfribidi --enable-libgme --enable-libgsm --enable-libmodplug --enable-libmp3lame --enable-libopenjpeg --enable-libopus --enable-libpulse --enable-librtmp --enable-libschroedinger --enable-libshine --enable-libsnappy --enable-libsoxr --enable-libspeex --enable-libssh --enable-libtheora --enable-libtwolame --enable-libvorbis --enable-libvpx --enable-libwavpack --enable-libwebp --enable-libx265 --enable-libxvid --enable-libzvbi --enable-openal --enable-opengl --enable-x11grab --enable-libdc1394 --enable-libiec61883 --enable-libzmq --enable-frei0r --enable-libx264 --enable-libopencv\n  libavutil      54. 31.100 / 54. 31.100\n  libavcodec     56. 60.100 / 56. 60.100\n  libavformat    56. 40.101 / 56. 40.101\n  libavdevice    56.  4.100 / 56.  4.100\n  libavfilter     5. 40.101 /  5. 40.101\n  libavresample   2.  1.  0 /  2.  1.  0\n  libswscale      3.  1.101 /  3.  1.101\n  libswresample   1.  2.101 /  1.  2.101\n  libpostproc    53.  3.100 / 53.  3.100\nInput #0, mov,mp4,m4a,3gp,3g2,mj2, from './audios/1563895848_127_35.mp3':\n  Metadata:\n    major_brand     : 3gp4\n    minor_version   : 0\n    compatible_brands: isom3gp4\n    creation_time   : 2019-07-23 15:30:37\n  Duration: 00:00:05.95, start: 0.000000, bitrate: 100 kb/s\n    Stream #0:0(eng): Audio: aac (LC) (mp4a / 0x6134706D), 16000 Hz, mono, fltp, 96 kb/s (default)\n    Metadata:\n      creation_time   : 2019-07-23 15:30:37\n      handler_name    : SoundHandle\nOutput #0, wav, to './wavs/1563895848_127_35.temp.wav':\n  Metadata:\n    major_brand     : 3gp4\n    minor_version   : 0\n    compatible_brands: isom3gp4\n    ISFT            : Lavf56.40.101\n    Stream #0:0(eng): Audio: pcm_s16le ([1][0][0][0] / 0x0001), 16000 Hz, mono, s16, 256 kb/s (default)\n    Metadata:\n      creation_time   : 2019-07-23 15:30:37\n      handler_name    : SoundHandle\n      encoder         : Lavc56.60.100 pcm_s16le\nStream mapping:\n  Stream #0:0 -> #0:0 (aac (native) -> pcm_s16le (native))\nPress [q] to stop, [?] for help\nsize=     186kB time=00:00:05.95 bitrate= 256.1kbits/s    \nvideo:0kB audio:186kB subtitle:0kB other streams:0kB global headers:0kB muxing overhead: 0.040953%\n"
2020-04-19 12:01:26,719 b''
2020-04-19 12:01:26,719 b"ffmpeg version 2.8.15-0ubuntu0.16.04.1 Copyright (c) 2000-2018 the FFmpeg developers\n  built with gcc 5.4.0 (Ubuntu 5.4.0-6ubuntu1~16.04.10) 20160609\n  configuration: --prefix=/usr --extra-version=0ubuntu0.16.04.1 --build-suffix=-ffmpeg --toolchain=hardened --libdir=/usr/lib/x86_64-linux-gnu --incdir=/usr/include/x86_64-linux-gnu --cc=cc --cxx=g++ --enable-gpl --enable-shared --disable-stripping --disable-decoder=libopenjpeg --disable-decoder=libschroedinger --enable-avresample --enable-avisynth --enable-gnutls --enable-ladspa --enable-libass --enable-libbluray --enable-libbs2b --enable-libcaca --enable-libcdio --enable-libflite --enable-libfontconfig --enable-libfreetype --enable-libfribidi --enable-libgme --enable-libgsm --enable-libmodplug --enable-libmp3lame --enable-libopenjpeg --enable-libopus --enable-libpulse --enable-librtmp --enable-libschroedinger --enable-libshine --enable-libsnappy --enable-libsoxr --enable-libspeex --enable-libssh --enable-libtheora --enable-libtwolame --enable-libvorbis --enable-libvpx --enable-libwavpack --enable-libwebp --enable-libx265 --enable-libxvid --enable-libzvbi --enable-openal --enable-opengl --enable-x11grab --enable-libdc1394 --enable-libiec61883 --enable-libzmq --enable-frei0r --enable-libx264 --enable-libopencv\n  libavutil      54. 31.100 / 54. 31.100\n  libavcodec     56. 60.100 / 56. 60.100\n  libavformat    56. 40.101 / 56. 40.101\n  libavdevice    56.  4.100 / 56.  4.100\n  libavfilter     5. 40.101 /  5. 40.101\n  libavresample   2.  1.  0 /  2.  1.  0\n  libswscale      3.  1.101 /  3.  1.101\n  libswresample   1.  2.101 /  1.  2.101\n  libpostproc    53.  3.100 / 53.  3.100\nInput #0, mov,mp4,m4a,3gp,3g2,mj2, from './audios/1563895868_127_462.mp3':\n  Metadata:\n    major_brand     : 3gp4\n    minor_version   : 0\n    compatible_brands: isom3gp4\n    creation_time   : 2019-07-23 15:31:01\n  Duration: 00:00:02.69, start: 0.000000, bitrate: 105 kb/s\n    Stream #0:0(eng): Audio: aac (LC) (mp4a / 0x6134706D), 16000 Hz, mono, fltp, 96 kb/s (default)\n    Metadata:\n      creation_time   : 2019-07-23 15:31:01\n      handler_name    : SoundHandle\nOutput #0, wav, to './wavs/1563895868_127_462.temp.wav':\n  Metadata:\n    major_brand     : 3gp4\n    minor_version   : 0\n    compatible_brands: isom3gp4\n    ISFT            : Lavf56.40.101\n    Stream #0:0(eng): Audio: pcm_s16le ([1][0][0][0] / 0x0001), 16000 Hz, mono, s16, 256 kb/s (default)\n    Metadata:\n      creation_time   : 2019-07-23 15:31:01\n      handler_name    : SoundHandle\n      encoder         : Lavc56.60.100 pcm_s16le\nStream mapping:\n  Stream #0:0 -> #0:0 (aac (native) -> pcm_s16le (native))\nPress [q] to stop, [?] for help\nsize=      84kB time=00:00:02.68 bitrate= 256.2kbits/s    \nvideo:0kB audio:84kB subtitle:0kB other streams:0kB global headers:0kB muxing overhead: 0.090681%\n"
2020-04-19 12:01:27,790 b''
2020-04-19 12:01:27,790 b"ffmpeg version 2.8.15-0ubuntu0.16.04.1 Copyright (c) 2000-2018 the FFmpeg developers\n  built with gcc 5.4.0 (Ubuntu 5.4.0-6ubuntu1~16.04.10) 20160609\n  configuration: --prefix=/usr --extra-version=0ubuntu0.16.04.1 --build-suffix=-ffmpeg --toolchain=hardened --libdir=/usr/lib/x86_64-linux-gnu --incdir=/usr/include/x86_64-linux-gnu --cc=cc --cxx=g++ --enable-gpl --enable-shared --disable-stripping --disable-decoder=libopenjpeg --disable-decoder=libschroedinger --enable-avresample --enable-avisynth --enable-gnutls --enable-ladspa --enable-libass --enable-libbluray --enable-libbs2b --enable-libcaca --enable-libcdio --enable-libflite --enable-libfontconfig --enable-libfreetype --enable-libfribidi --enable-libgme --enable-libgsm --enable-libmodplug --enable-libmp3lame --enable-libopenjpeg --enable-libopus --enable-libpulse --enable-librtmp --enable-libschroedinger --enable-libshine --enable-libsnappy --enable-libsoxr --enable-libspeex --enable-libssh --enable-libtheora --enable-libtwolame --enable-libvorbis --enable-libvpx --enable-libwavpack --enable-libwebp --enable-libx265 --enable-libxvid --enable-libzvbi --enable-openal --enable-opengl --enable-x11grab --enable-libdc1394 --enable-libiec61883 --enable-libzmq --enable-frei0r --enable-libx264 --enable-libopencv\n  libavutil      54. 31.100 / 54. 31.100\n  libavcodec     56. 60.100 / 56. 60.100\n  libavformat    56. 40.101 / 56. 40.101\n  libavdevice    56.  4.100 / 56.  4.100\n  libavfilter     5. 40.101 /  5. 40.101\n  libavresample   2.  1.  0 /  2.  1.  0\n  libswscale      3.  1.101 /  3.  1.101\n  libswresample   1.  2.101 /  1.  2.101\n  libpostproc    53.  3.100 / 53.  3.100\nInput #0, mov,mp4,m4a,3gp,3g2,mj2, from './audios/1563895892_127_323.mp3':\n  Metadata:\n    major_brand     : 3gp4\n    minor_version   : 0\n    compatible_brands: isom3gp4\n    creation_time   : 2019-07-23 15:31:24\n  Duration: 00:00:03.39, start: 0.000000, bitrate: 103 kb/s\n    Stream #0:0(eng): Audio: aac (LC) (mp4a / 0x6134706D), 16000 Hz, mono, fltp, 96 kb/s (default)\n    Metadata:\n      creation_time   : 2019-07-23 15:31:24\n      handler_name    : SoundHandle\nOutput #0, wav, to './wavs/1563895892_127_323.temp.wav':\n  Metadata:\n    major_brand     : 3gp4\n    minor_version   : 0\n    compatible_brands: isom3gp4\n    ISFT            : Lavf56.40.101\n    Stream #0:0(eng): Audio: pcm_s16le ([1][0][0][0] / 0x0001), 16000 Hz, mono, s16, 256 kb/s (default)\n    Metadata:\n      creation_time   : 2019-07-23 15:31:24\n      handler_name    : SoundHandle\n      encoder         : Lavc56.60.100 pcm_s16le\nStream mapping:\n  Stream #0:0 -> #0:0 (aac (native) -> pcm_s16le (native))\nPress [q] to stop, [?] for help\nsize=     106kB time=00:00:03.39 bitrate= 256.2kbits/s    \nvideo:0kB audio:106kB subtitle:0kB other streams:0kB global headers:0kB muxing overhead: 0.071860%\n"
2020-04-19 12:01:28,881 b''
2020-04-19 12:01:28,881 b"ffmpeg version 2.8.15-0ubuntu0.16.04.1 Copyright (c) 2000-2018 the FFmpeg developers\n  built with gcc 5.4.0 (Ubuntu 5.4.0-6ubuntu1~16.04.10) 20160609\n  configuration: --prefix=/usr --extra-version=0ubuntu0.16.04.1 --build-suffix=-ffmpeg --toolchain=hardened --libdir=/usr/lib/x86_64-linux-gnu --incdir=/usr/include/x86_64-linux-gnu --cc=cc --cxx=g++ --enable-gpl --enable-shared --disable-stripping --disable-decoder=libopenjpeg --disable-decoder=libschroedinger --enable-avresample --enable-avisynth --enable-gnutls --enable-ladspa --enable-libass --enable-libbluray --enable-libbs2b --enable-libcaca --enable-libcdio --enable-libflite --enable-libfontconfig --enable-libfreetype --enable-libfribidi --enable-libgme --enable-libgsm --enable-libmodplug --enable-libmp3lame --enable-libopenjpeg --enable-libopus --enable-libpulse --enable-librtmp --enable-libschroedinger --enable-libshine --enable-libsnappy --enable-libsoxr --enable-libspeex --enable-libssh --enable-libtheora --enable-libtwolame --enable-libvorbis --enable-libvpx --enable-libwavpack --enable-libwebp --enable-libx265 --enable-libxvid --enable-libzvbi --enable-openal --enable-opengl --enable-x11grab --enable-libdc1394 --enable-libiec61883 --enable-libzmq --enable-frei0r --enable-libx264 --enable-libopencv\n  libavutil      54. 31.100 / 54. 31.100\n  libavcodec     56. 60.100 / 56. 60.100\n  libavformat    56. 40.101 / 56. 40.101\n  libavdevice    56.  4.100 / 56.  4.100\n  libavfilter     5. 40.101 /  5. 40.101\n  libavresample   2.  1.  0 /  2.  1.  0\n  libswscale      3.  1.101 /  3.  1.101\n  libswresample   1.  2.101 /  1.  2.101\n  libpostproc    53.  3.100 / 53.  3.100\nInput #0, mov,mp4,m4a,3gp,3g2,mj2, from './audios/1563896303_127_559.mp3':\n  Metadata:\n    major_brand     : 3gp4\n    minor_version   : 0\n    compatible_brands: isom3gp4\n    creation_time   : 2019-07-23 15:38:16\n  Duration: 00:00:03.01, start: 0.000000, bitrate: 104 kb/s\n    Stream #0:0(eng): Audio: aac (LC) (mp4a / 0x6134706D), 16000 Hz, mono, fltp, 96 kb/s (default)\n    Metadata:\n      creation_time   : 2019-07-23 15:38:16\n      handler_name    : SoundHandle\nOutput #0, wav, to './wavs/1563896303_127_559.temp.wav':\n  Metadata:\n    major_brand     : 3gp4\n    minor_version   : 0\n    compatible_brands: isom3gp4\n    ISFT            : Lavf56.40.101\n    Stream #0:0(eng): Audio: pcm_s16le ([1][0][0][0] / 0x0001), 16000 Hz, mono, s16, 256 kb/s (default)\n    Metadata:\n      creation_time   : 2019-07-23 15:38:16\n      handler_name    : SoundHandle\n      encoder         : Lavc56.60.100 pcm_s16le\nStream mapping:\n  Stream #0:0 -> #0:0 (aac (native) -> pcm_s16le (native))\nPress [q] to stop, [?] for help\nsize=      94kB time=00:00:03.00 bitrate= 256.2kbits/s    \nvideo:0kB audio:94kB subtitle:0kB other streams:0kB global headers:0kB muxing overhead: 0.081034%\n"
2020-04-19 12:01:30,583 b''
2020-04-19 12:01:30,583 b"ffmpeg version 2.8.15-0ubuntu0.16.04.1 Copyright (c) 2000-2018 the FFmpeg developers\n  built with gcc 5.4.0 (Ubuntu 5.4.0-6ubuntu1~16.04.10) 20160609\n  configuration: --prefix=/usr --extra-version=0ubuntu0.16.04.1 --build-suffix=-ffmpeg --toolchain=hardened --libdir=/usr/lib/x86_64-linux-gnu --incdir=/usr/include/x86_64-linux-gnu --cc=cc --cxx=g++ --enable-gpl --enable-shared --disable-stripping --disable-decoder=libopenjpeg --disable-decoder=libschroedinger --enable-avresample --enable-avisynth --enable-gnutls --enable-ladspa --enable-libass --enable-libbluray --enable-libbs2b --enable-libcaca --enable-libcdio --enable-libflite --enable-libfontconfig --enable-libfreetype --enable-libfribidi --enable-libgme --enable-libgsm --enable-libmodplug --enable-libmp3lame --enable-libopenjpeg --enable-libopus --enable-libpulse --enable-librtmp --enable-libschroedinger --enable-libshine --enable-libsnappy --enable-libsoxr --enable-libspeex --enable-libssh --enable-libtheora --enable-libtwolame --enable-libvorbis --enable-libvpx --enable-libwavpack --enable-libwebp --enable-libx265 --enable-libxvid --enable-libzvbi --enable-openal --enable-opengl --enable-x11grab --enable-libdc1394 --enable-libiec61883 --enable-libzmq --enable-frei0r --enable-libx264 --enable-libopencv\n  libavutil      54. 31.100 / 54. 31.100\n  libavcodec     56. 60.100 / 56. 60.100\n  libavformat    56. 40.101 / 56. 40.101\n  libavdevice    56.  4.100 / 56.  4.100\n  libavfilter     5. 40.101 /  5. 40.101\n  libavresample   2.  1.  0 /  2.  1.  0\n  libswscale      3.  1.101 /  3.  1.101\n  libswresample   1.  2.101 /  1.  2.101\n  libpostproc    53.  3.100 / 53.  3.100\nInput #0, mov,mp4,m4a,3gp,3g2,mj2, from './audios/1563896338_127_230.mp3':\n  Metadata:\n    major_brand     : 3gp4\n    minor_version   : 0\n    compatible_brands: isom3gp4\n    creation_time   : 2019-07-23 15:38:48\n  Duration: 00:00:04.80, start: 0.000000, bitrate: 101 kb/s\n    Stream #0:0(eng): Audio: aac (LC) (mp4a / 0x6134706D), 16000 Hz, mono, fltp, 96 kb/s (default)\n    Metadata:\n      creation_time   : 2019-07-23 15:38:48\n      handler_name    : SoundHandle\nOutput #0, wav, to './wavs/1563896338_127_230.temp.wav':\n  Metadata:\n    major_brand     : 3gp4\n    minor_version   : 0\n    compatible_brands: isom3gp4\n    ISFT            : Lavf56.40.101\n    Stream #0:0(eng): Audio: pcm_s16le ([1][0][0][0] / 0x0001), 16000 Hz, mono, s16, 256 kb/s (default)\n    Metadata:\n      creation_time   : 2019-07-23 15:38:48\n      handler_name    : SoundHandle\n      encoder         : Lavc56.60.100 pcm_s16le\nStream mapping:\n  Stream #0:0 -> #0:0 (aac (native) -> pcm_s16le (native))\nPress [q] to stop, [?] for help\nsize=     150kB time=00:00:04.80 bitrate= 256.1kbits/s    \nvideo:0kB audio:150kB subtitle:0kB other streams:0kB global headers:0kB muxing overhead: 0.050781%\n"
2020-04-19 12:01:32,954 b''
2020-04-19 12:01:32,954 b"ffmpeg version 2.8.15-0ubuntu0.16.04.1 Copyright (c) 2000-2018 the FFmpeg developers\n  built with gcc 5.4.0 (Ubuntu 5.4.0-6ubuntu1~16.04.10) 20160609\n  configuration: --prefix=/usr --extra-version=0ubuntu0.16.04.1 --build-suffix=-ffmpeg --toolchain=hardened --libdir=/usr/lib/x86_64-linux-gnu --incdir=/usr/include/x86_64-linux-gnu --cc=cc --cxx=g++ --enable-gpl --enable-shared --disable-stripping --disable-decoder=libopenjpeg --disable-decoder=libschroedinger --enable-avresample --enable-avisynth --enable-gnutls --enable-ladspa --enable-libass --enable-libbluray --enable-libbs2b --enable-libcaca --enable-libcdio --enable-libflite --enable-libfontconfig --enable-libfreetype --enable-libfribidi --enable-libgme --enable-libgsm --enable-libmodplug --enable-libmp3lame --enable-libopenjpeg --enable-libopus --enable-libpulse --enable-librtmp --enable-libschroedinger --enable-libshine --enable-libsnappy --enable-libsoxr --enable-libspeex --enable-libssh --enable-libtheora --enable-libtwolame --enable-libvorbis --enable-libvpx --enable-libwavpack --enable-libwebp --enable-libx265 --enable-libxvid --enable-libzvbi --enable-openal --enable-opengl --enable-x11grab --enable-libdc1394 --enable-libiec61883 --enable-libzmq --enable-frei0r --enable-libx264 --enable-libopencv\n  libavutil      54. 31.100 / 54. 31.100\n  libavcodec     56. 60.100 / 56. 60.100\n  libavformat    56. 40.101 / 56. 40.101\n  libavdevice    56.  4.100 / 56.  4.100\n  libavfilter     5. 40.101 /  5. 40.101\n  libavresample   2.  1.  0 /  2.  1.  0\n  libswscale      3.  1.101 /  3.  1.101\n  libswresample   1.  2.101 /  1.  2.101\n  libpostproc    53.  3.100 / 53.  3.100\nInput #0, mov,mp4,m4a,3gp,3g2,mj2, from './audios/1563896361_127_196.mp3':\n  Metadata:\n    major_brand     : 3gp4\n    minor_version   : 0\n    compatible_brands: isom3gp4\n    creation_time   : 2019-07-23 15:39:14\n  Duration: 00:00:03.65, start: 0.000000, bitrate: 103 kb/s\n    Stream #0:0(eng): Audio: aac (LC) (mp4a / 0x6134706D), 16000 Hz, mono, fltp, 96 kb/s (default)\n    Metadata:\n      creation_time   : 2019-07-23 15:39:14\n      handler_name    : SoundHandle\nOutput #0, wav, to './wavs/1563896361_127_196.temp.wav':\n  Metadata:\n    major_brand     : 3gp4\n    minor_version   : 0\n    compatible_brands: isom3gp4\n    ISFT            : Lavf56.40.101\n    Stream #0:0(eng): Audio: pcm_s16le ([1][0][0][0] / 0x0001), 16000 Hz, mono, s16, 256 kb/s (default)\n    Metadata:\n      creation_time   : 2019-07-23 15:39:14\n      handler_name    : SoundHandle\n      encoder         : Lavc56.60.100 pcm_s16le\nStream mapping:\n  Stream #0:0 -> #0:0 (aac (native) -> pcm_s16le (native))\nPress [q] to stop, [?] for help\nsize=     114kB time=00:00:03.64 bitrate= 256.2kbits/s    \nvideo:0kB audio:114kB subtitle:0kB other streams:0kB global headers:0kB muxing overhead: 0.066817%\n"
2020-04-19 12:01:35,106 b''
2020-04-19 12:01:35,106 b"ffmpeg version 2.8.15-0ubuntu0.16.04.1 Copyright (c) 2000-2018 the FFmpeg developers\n  built with gcc 5.4.0 (Ubuntu 5.4.0-6ubuntu1~16.04.10) 20160609\n  configuration: --prefix=/usr --extra-version=0ubuntu0.16.04.1 --build-suffix=-ffmpeg --toolchain=hardened --libdir=/usr/lib/x86_64-linux-gnu --incdir=/usr/include/x86_64-linux-gnu --cc=cc --cxx=g++ --enable-gpl --enable-shared --disable-stripping --disable-decoder=libopenjpeg --disable-decoder=libschroedinger --enable-avresample --enable-avisynth --enable-gnutls --enable-ladspa --enable-libass --enable-libbluray --enable-libbs2b --enable-libcaca --enable-libcdio --enable-libflite --enable-libfontconfig --enable-libfreetype --enable-libfribidi --enable-libgme --enable-libgsm --enable-libmodplug --enable-libmp3lame --enable-libopenjpeg --enable-libopus --enable-libpulse --enable-librtmp --enable-libschroedinger --enable-libshine --enable-libsnappy --enable-libsoxr --enable-libspeex --enable-libssh --enable-libtheora --enable-libtwolame --enable-libvorbis --enable-libvpx --enable-libwavpack --enable-libwebp --enable-libx265 --enable-libxvid --enable-libzvbi --enable-openal --enable-opengl --enable-x11grab --enable-libdc1394 --enable-libiec61883 --enable-libzmq --enable-frei0r --enable-libx264 --enable-libopencv\n  libavutil      54. 31.100 / 54. 31.100\n  libavcodec     56. 60.100 / 56. 60.100\n  libavformat    56. 40.101 / 56. 40.101\n  libavdevice    56.  4.100 / 56.  4.100\n  libavfilter     5. 40.101 /  5. 40.101\n  libavresample   2.  1.  0 /  2.  1.  0\n  libswscale      3.  1.101 /  3.  1.101\n  libswresample   1.  2.101 /  1.  2.101\n  libpostproc    53.  3.100 / 53.  3.100\nInput #0, mov,mp4,m4a,3gp,3g2,mj2, from './audios/1563896383_127_656.mp3':\n  Metadata:\n    major_brand     : 3gp4\n    minor_version   : 0\n    compatible_brands: isom3gp4\n    creation_time   : 2019-07-23 15:39:36\n  Duration: 00:00:02.94, start: 0.000000, bitrate: 104 kb/s\n    Stream #0:0(eng): Audio: aac (LC) (mp4a / 0x6134706D), 16000 Hz, mono, fltp, 96 kb/s (default)\n    Metadata:\n      creation_time   : 2019-07-23 15:39:36\n      handler_name    : SoundHandle\nOutput #0, wav, to './wavs/1563896383_127_656.temp.wav':\n  Metadata:\n    major_brand     : 3gp4\n    minor_version   : 0\n    compatible_brands: isom3gp4\n    ISFT            : Lavf56.40.101\n    Stream #0:0(eng): Audio: pcm_s16le ([1][0][0][0] / 0x0001), 16000 Hz, mono, s16, 256 kb/s (default)\n    Metadata:\n      creation_time   : 2019-07-23 15:39:36\n      handler_name    : SoundHandle\n      encoder         : Lavc56.60.100 pcm_s16le\nStream mapping:\n  Stream #0:0 -> #0:0 (aac (native) -> pcm_s16le (native))\nPress [q] to stop, [?] for help\nsize=      92kB time=00:00:02.94 bitrate= 256.2kbits/s    \nvideo:0kB audio:92kB subtitle:0kB other streams:0kB global headers:0kB muxing overhead: 0.082796%\n"
2020-04-19 12:01:36,247 b''
2020-04-19 12:01:36,247 b"ffmpeg version 2.8.15-0ubuntu0.16.04.1 Copyright (c) 2000-2018 the FFmpeg developers\n  built with gcc 5.4.0 (Ubuntu 5.4.0-6ubuntu1~16.04.10) 20160609\n  configuration: --prefix=/usr --extra-version=0ubuntu0.16.04.1 --build-suffix=-ffmpeg --toolchain=hardened --libdir=/usr/lib/x86_64-linux-gnu --incdir=/usr/include/x86_64-linux-gnu --cc=cc --cxx=g++ --enable-gpl --enable-shared --disable-stripping --disable-decoder=libopenjpeg --disable-decoder=libschroedinger --enable-avresample --enable-avisynth --enable-gnutls --enable-ladspa --enable-libass --enable-libbluray --enable-libbs2b --enable-libcaca --enable-libcdio --enable-libflite --enable-libfontconfig --enable-libfreetype --enable-libfribidi --enable-libgme --enable-libgsm --enable-libmodplug --enable-libmp3lame --enable-libopenjpeg --enable-libopus --enable-libpulse --enable-librtmp --enable-libschroedinger --enable-libshine --enable-libsnappy --enable-libsoxr --enable-libspeex --enable-libssh --enable-libtheora --enable-libtwolame --enable-libvorbis --enable-libvpx --enable-libwavpack --enable-libwebp --enable-libx265 --enable-libxvid --enable-libzvbi --enable-openal --enable-opengl --enable-x11grab --enable-libdc1394 --enable-libiec61883 --enable-libzmq --enable-frei0r --enable-libx264 --enable-libopencv\n  libavutil      54. 31.100 / 54. 31.100\n  libavcodec     56. 60.100 / 56. 60.100\n  libavformat    56. 40.101 / 56. 40.101\n  libavdevice    56.  4.100 / 56.  4.100\n  libavfilter     5. 40.101 /  5. 40.101\n  libavresample   2.  1.  0 /  2.  1.  0\n  libswscale      3.  1.101 /  3.  1.101\n  libswresample   1.  2.101 /  1.  2.101\n  libpostproc    53.  3.100 / 53.  3.100\nInput #0, mov,mp4,m4a,3gp,3g2,mj2, from './audios/1563896430_127_619.mp3':\n  Metadata:\n    major_brand     : 3gp4\n    minor_version   : 0\n    compatible_brands: isom3gp4\n    creation_time   : 2019-07-23 15:40:21\n  Duration: 00:00:04.54, start: 0.000000, bitrate: 101 kb/s\n    Stream #0:0(eng): Audio: aac (LC) (mp4a / 0x6134706D), 16000 Hz, mono, fltp, 96 kb/s (default)\n    Metadata:\n      creation_time   : 2019-07-23 15:40:21\n      handler_name    : SoundHandle\nOutput #0, wav, to './wavs/1563896430_127_619.temp.wav':\n  Metadata:\n    major_brand     : 3gp4\n    minor_version   : 0\n    compatible_brands: isom3gp4\n    ISFT            : Lavf56.40.101\n    Stream #0:0(eng): Audio: pcm_s16le ([1][0][0][0] / 0x0001), 16000 Hz, mono, s16, 256 kb/s (default)\n    Metadata:\n      creation_time   : 2019-07-23 15:40:21\n      handler_name    : SoundHandle\n      encoder         : Lavc56.60.100 pcm_s16le\nStream mapping:\n  Stream #0:0 -> #0:0 (aac (native) -> pcm_s16le (native))\nPress [q] to stop, [?] for help\nsize=     142kB time=00:00:04.54 bitrate= 256.1kbits/s    \nvideo:0kB audio:142kB subtitle:0kB other streams:0kB global headers:0kB muxing overhead: 0.053642%\n"
2020-04-19 12:01:38,513 b''
2020-04-19 12:01:38,513 b"ffmpeg version 2.8.15-0ubuntu0.16.04.1 Copyright (c) 2000-2018 the FFmpeg developers\n  built with gcc 5.4.0 (Ubuntu 5.4.0-6ubuntu1~16.04.10) 20160609\n  configuration: --prefix=/usr --extra-version=0ubuntu0.16.04.1 --build-suffix=-ffmpeg --toolchain=hardened --libdir=/usr/lib/x86_64-linux-gnu --incdir=/usr/include/x86_64-linux-gnu --cc=cc --cxx=g++ --enable-gpl --enable-shared --disable-stripping --disable-decoder=libopenjpeg --disable-decoder=libschroedinger --enable-avresample --enable-avisynth --enable-gnutls --enable-ladspa --enable-libass --enable-libbluray --enable-libbs2b --enable-libcaca --enable-libcdio --enable-libflite --enable-libfontconfig --enable-libfreetype --enable-libfribidi --enable-libgme --enable-libgsm --enable-libmodplug --enable-libmp3lame --enable-libopenjpeg --enable-libopus --enable-libpulse --enable-librtmp --enable-libschroedinger --enable-libshine --enable-libsnappy --enable-libsoxr --enable-libspeex --enable-libssh --enable-libtheora --enable-libtwolame --enable-libvorbis --enable-libvpx --enable-libwavpack --enable-libwebp --enable-libx265 --enable-libxvid --enable-libzvbi --enable-openal --enable-opengl --enable-x11grab --enable-libdc1394 --enable-libiec61883 --enable-libzmq --enable-frei0r --enable-libx264 --enable-libopencv\n  libavutil      54. 31.100 / 54. 31.100\n  libavcodec     56. 60.100 / 56. 60.100\n  libavformat    56. 40.101 / 56. 40.101\n  libavdevice    56.  4.100 / 56.  4.100\n  libavfilter     5. 40.101 /  5. 40.101\n  libavresample   2.  1.  0 /  2.  1.  0\n  libswscale      3.  1.101 /  3.  1.101\n  libswresample   1.  2.101 /  1.  2.101\n  libpostproc    53.  3.100 / 53.  3.100\nInput #0, mov,mp4,m4a,3gp,3g2,mj2, from './audios/1563896480_127_65.mp3':\n  Metadata:\n    major_brand     : 3gp4\n    minor_version   : 0\n    compatible_brands: isom3gp4\n    creation_time   : 2019-07-23 15:41:09\n  Duration: 00:00:03.20, start: 0.000000, bitrate: 104 kb/s\n    Stream #0:0(eng): Audio: aac (LC) (mp4a / 0x6134706D), 16000 Hz, mono, fltp, 96 kb/s (default)\n    Metadata:\n      creation_time   : 2019-07-23 15:41:09\n      handler_name    : SoundHandle\nOutput #0, wav, to './wavs/1563896480_127_65.temp.wav':\n  Metadata:\n    major_brand     : 3gp4\n    minor_version   : 0\n    compatible_brands: isom3gp4\n    ISFT            : Lavf56.40.101\n    Stream #0:0(eng): Audio: pcm_s16le ([1][0][0][0] / 0x0001), 16000 Hz, mono, s16, 256 kb/s (default)\n    Metadata:\n      creation_time   : 2019-07-23 15:41:09\n      handler_name    : SoundHandle\n      encoder         : Lavc56.60.100 pcm_s16le\nStream mapping:\n  Stream #0:0 -> #0:0 (aac (native) -> pcm_s16le (native))\nPress [q] to stop, [?] for help\nsize=     100kB time=00:00:03.20 bitrate= 256.2kbits/s    \nvideo:0kB audio:100kB subtitle:0kB other streams:0kB global headers:0kB muxing overhead: 0.076172%\n"
2020-04-19 12:01:40,562 b''
2020-04-19 12:01:40,562 b"ffmpeg version 2.8.15-0ubuntu0.16.04.1 Copyright (c) 2000-2018 the FFmpeg developers\n  built with gcc 5.4.0 (Ubuntu 5.4.0-6ubuntu1~16.04.10) 20160609\n  configuration: --prefix=/usr --extra-version=0ubuntu0.16.04.1 --build-suffix=-ffmpeg --toolchain=hardened --libdir=/usr/lib/x86_64-linux-gnu --incdir=/usr/include/x86_64-linux-gnu --cc=cc --cxx=g++ --enable-gpl --enable-shared --disable-stripping --disable-decoder=libopenjpeg --disable-decoder=libschroedinger --enable-avresample --enable-avisynth --enable-gnutls --enable-ladspa --enable-libass --enable-libbluray --enable-libbs2b --enable-libcaca --enable-libcdio --enable-libflite --enable-libfontconfig --enable-libfreetype --enable-libfribidi --enable-libgme --enable-libgsm --enable-libmodplug --enable-libmp3lame --enable-libopenjpeg --enable-libopus --enable-libpulse --enable-librtmp --enable-libschroedinger --enable-libshine --enable-libsnappy --enable-libsoxr --enable-libspeex --enable-libssh --enable-libtheora --enable-libtwolame --enable-libvorbis --enable-libvpx --enable-libwavpack --enable-libwebp --enable-libx265 --enable-libxvid --enable-libzvbi --enable-openal --enable-opengl --enable-x11grab --enable-libdc1394 --enable-libiec61883 --enable-libzmq --enable-frei0r --enable-libx264 --enable-libopencv\n  libavutil      54. 31.100 / 54. 31.100\n  libavcodec     56. 60.100 / 56. 60.100\n  libavformat    56. 40.101 / 56. 40.101\n  libavdevice    56.  4.100 / 56.  4.100\n  libavfilter     5. 40.101 /  5. 40.101\n  libavresample   2.  1.  0 /  2.  1.  0\n  libswscale      3.  1.101 /  3.  1.101\n  libswresample   1.  2.101 /  1.  2.101\n  libpostproc    53.  3.100 / 53.  3.100\nInput #0, mov,mp4,m4a,3gp,3g2,mj2, from './audios/1563896549_127_74.mp3':\n  Metadata:\n    major_brand     : 3gp4\n    minor_version   : 0\n    compatible_brands: isom3gp4\n    creation_time   : 2019-07-23 15:42:13\n  Duration: 00:00:07.42, start: 0.000000, bitrate: 99 kb/s\n    Stream #0:0(eng): Audio: aac (LC) (mp4a / 0x6134706D), 16000 Hz, mono, fltp, 96 kb/s (default)\n    Metadata:\n      creation_time   : 2019-07-23 15:42:13\n      handler_name    : SoundHandle\nOutput #0, wav, to './wavs/1563896549_127_74.temp.wav':\n  Metadata:\n    major_brand     : 3gp4\n    minor_version   : 0\n    compatible_brands: isom3gp4\n    ISFT            : Lavf56.40.101\n    Stream #0:0(eng): Audio: pcm_s16le ([1][0][0][0] / 0x0001), 16000 Hz, mono, s16, 256 kb/s (default)\n    Metadata:\n      creation_time   : 2019-07-23 15:42:13\n      handler_name    : SoundHandle\n      encoder         : Lavc56.60.100 pcm_s16le\nStream mapping:\n  Stream #0:0 -> #0:0 (aac (native) -> pcm_s16le (native))\nPress [q] to stop, [?] for help\nsize=     232kB time=00:00:07.42 bitrate= 256.1kbits/s    \nvideo:0kB audio:232kB subtitle:0kB other streams:0kB global headers:0kB muxing overhead: 0.032833%\n"
2020-04-19 12:01:42,534 b''
2020-04-19 12:01:42,534 b"ffmpeg version 2.8.15-0ubuntu0.16.04.1 Copyright (c) 2000-2018 the FFmpeg developers\n  built with gcc 5.4.0 (Ubuntu 5.4.0-6ubuntu1~16.04.10) 20160609\n  configuration: --prefix=/usr --extra-version=0ubuntu0.16.04.1 --build-suffix=-ffmpeg --toolchain=hardened --libdir=/usr/lib/x86_64-linux-gnu --incdir=/usr/include/x86_64-linux-gnu --cc=cc --cxx=g++ --enable-gpl --enable-shared --disable-stripping --disable-decoder=libopenjpeg --disable-decoder=libschroedinger --enable-avresample --enable-avisynth --enable-gnutls --enable-ladspa --enable-libass --enable-libbluray --enable-libbs2b --enable-libcaca --enable-libcdio --enable-libflite --enable-libfontconfig --enable-libfreetype --enable-libfribidi --enable-libgme --enable-libgsm --enable-libmodplug --enable-libmp3lame --enable-libopenjpeg --enable-libopus --enable-libpulse --enable-librtmp --enable-libschroedinger --enable-libshine --enable-libsnappy --enable-libsoxr --enable-libspeex --enable-libssh --enable-libtheora --enable-libtwolame --enable-libvorbis --enable-libvpx --enable-libwavpack --enable-libwebp --enable-libx265 --enable-libxvid --enable-libzvbi --enable-openal --enable-opengl --enable-x11grab --enable-libdc1394 --enable-libiec61883 --enable-libzmq --enable-frei0r --enable-libx264 --enable-libopencv\n  libavutil      54. 31.100 / 54. 31.100\n  libavcodec     56. 60.100 / 56. 60.100\n  libavformat    56. 40.101 / 56. 40.101\n  libavdevice    56.  4.100 / 56.  4.100\n  libavfilter     5. 40.101 /  5. 40.101\n  libavresample   2.  1.  0 /  2.  1.  0\n  libswscale      3.  1.101 /  3.  1.101\n  libswresample   1.  2.101 /  1.  2.101\n  libpostproc    53.  3.100 / 53.  3.100\nInput #0, mov,mp4,m4a,3gp,3g2,mj2, from './audios/1563896622_127_191.mp3':\n  Metadata:\n    major_brand     : 3gp4\n    minor_version   : 0\n    compatible_brands: isom3gp4\n    creation_time   : 2019-07-23 15:43:30\n  Duration: 00:00:04.86, start: 0.000000, bitrate: 101 kb/s\n    Stream #0:0(eng): Audio: aac (LC) (mp4a / 0x6134706D), 16000 Hz, mono, fltp, 96 kb/s (default)\n    Metadata:\n      creation_time   : 2019-07-23 15:43:30\n      handler_name    : SoundHandle\nOutput #0, wav, to './wavs/1563896622_127_191.temp.wav':\n  Metadata:\n    major_brand     : 3gp4\n    minor_version   : 0\n    compatible_brands: isom3gp4\n    ISFT            : Lavf56.40.101\n    Stream #0:0(eng): Audio: pcm_s16le ([1][0][0][0] / 0x0001), 16000 Hz, mono, s16, 256 kb/s (default)\n    Metadata:\n      creation_time   : 2019-07-23 15:43:30\n      handler_name    : SoundHandle\n      encoder         : Lavc56.60.100 pcm_s16le\nStream mapping:\n  Stream #0:0 -> #0:0 (aac (native) -> pcm_s16le (native))\nPress [q] to stop, [?] for help\nsize=     152kB time=00:00:04.86 bitrate= 256.1kbits/s    \nvideo:0kB audio:152kB subtitle:0kB other streams:0kB global headers:0kB muxing overhead: 0.050113%\n"
2020-04-19 12:01:43,923 b''
2020-04-19 12:01:43,924 b"ffmpeg version 2.8.15-0ubuntu0.16.04.1 Copyright (c) 2000-2018 the FFmpeg developers\n  built with gcc 5.4.0 (Ubuntu 5.4.0-6ubuntu1~16.04.10) 20160609\n  configuration: --prefix=/usr --extra-version=0ubuntu0.16.04.1 --build-suffix=-ffmpeg --toolchain=hardened --libdir=/usr/lib/x86_64-linux-gnu --incdir=/usr/include/x86_64-linux-gnu --cc=cc --cxx=g++ --enable-gpl --enable-shared --disable-stripping --disable-decoder=libopenjpeg --disable-decoder=libschroedinger --enable-avresample --enable-avisynth --enable-gnutls --enable-ladspa --enable-libass --enable-libbluray --enable-libbs2b --enable-libcaca --enable-libcdio --enable-libflite --enable-libfontconfig --enable-libfreetype --enable-libfribidi --enable-libgme --enable-libgsm --enable-libmodplug --enable-libmp3lame --enable-libopenjpeg --enable-libopus --enable-libpulse --enable-librtmp --enable-libschroedinger --enable-libshine --enable-libsnappy --enable-libsoxr --enable-libspeex --enable-libssh --enable-libtheora --enable-libtwolame --enable-libvorbis --enable-libvpx --enable-libwavpack --enable-libwebp --enable-libx265 --enable-libxvid --enable-libzvbi --enable-openal --enable-opengl --enable-x11grab --enable-libdc1394 --enable-libiec61883 --enable-libzmq --enable-frei0r --enable-libx264 --enable-libopencv\n  libavutil      54. 31.100 / 54. 31.100\n  libavcodec     56. 60.100 / 56. 60.100\n  libavformat    56. 40.101 / 56. 40.101\n  libavdevice    56.  4.100 / 56.  4.100\n  libavfilter     5. 40.101 /  5. 40.101\n  libavresample   2.  1.  0 /  2.  1.  0\n  libswscale      3.  1.101 /  3.  1.101\n  libswresample   1.  2.101 /  1.  2.101\n  libpostproc    53.  3.100 / 53.  3.100\nInput #0, mov,mp4,m4a,3gp,3g2,mj2, from './audios/1563896652_127_19.mp3':\n  Metadata:\n    major_brand     : 3gp4\n    minor_version   : 0\n    compatible_brands: isom3gp4\n    creation_time   : 2019-07-23 15:44:01\n  Duration: 00:00:05.89, start: 0.000000, bitrate: 100 kb/s\n    Stream #0:0(eng): Audio: aac (LC) (mp4a / 0x6134706D), 16000 Hz, mono, fltp, 96 kb/s (default)\n    Metadata:\n      creation_time   : 2019-07-23 15:44:01\n      handler_name    : SoundHandle\nOutput #0, wav, to './wavs/1563896652_127_19.temp.wav':\n  Metadata:\n    major_brand     : 3gp4\n    minor_version   : 0\n    compatible_brands: isom3gp4\n    ISFT            : Lavf56.40.101\n    Stream #0:0(eng): Audio: pcm_s16le ([1][0][0][0] / 0x0001), 16000 Hz, mono, s16, 256 kb/s (default)\n    Metadata:\n      creation_time   : 2019-07-23 15:44:01\n      handler_name    : SoundHandle\n      encoder         : Lavc56.60.100 pcm_s16le\nStream mapping:\n  Stream #0:0 -> #0:0 (aac (native) -> pcm_s16le (native))\nPress [q] to stop, [?] for help\nsize=     184kB time=00:00:05.88 bitrate= 256.1kbits/s    \nvideo:0kB audio:184kB subtitle:0kB other streams:0kB global headers:0kB muxing overhead: 0.041398%\n"
2020-04-19 12:01:45,272 b''
2020-04-19 12:01:45,272 b"ffmpeg version 2.8.15-0ubuntu0.16.04.1 Copyright (c) 2000-2018 the FFmpeg developers\n  built with gcc 5.4.0 (Ubuntu 5.4.0-6ubuntu1~16.04.10) 20160609\n  configuration: --prefix=/usr --extra-version=0ubuntu0.16.04.1 --build-suffix=-ffmpeg --toolchain=hardened --libdir=/usr/lib/x86_64-linux-gnu --incdir=/usr/include/x86_64-linux-gnu --cc=cc --cxx=g++ --enable-gpl --enable-shared --disable-stripping --disable-decoder=libopenjpeg --disable-decoder=libschroedinger --enable-avresample --enable-avisynth --enable-gnutls --enable-ladspa --enable-libass --enable-libbluray --enable-libbs2b --enable-libcaca --enable-libcdio --enable-libflite --enable-libfontconfig --enable-libfreetype --enable-libfribidi --enable-libgme --enable-libgsm --enable-libmodplug --enable-libmp3lame --enable-libopenjpeg --enable-libopus --enable-libpulse --enable-librtmp --enable-libschroedinger --enable-libshine --enable-libsnappy --enable-libsoxr --enable-libspeex --enable-libssh --enable-libtheora --enable-libtwolame --enable-libvorbis --enable-libvpx --enable-libwavpack --enable-libwebp --enable-libx265 --enable-libxvid --enable-libzvbi --enable-openal --enable-opengl --enable-x11grab --enable-libdc1394 --enable-libiec61883 --enable-libzmq --enable-frei0r --enable-libx264 --enable-libopencv\n  libavutil      54. 31.100 / 54. 31.100\n  libavcodec     56. 60.100 / 56. 60.100\n  libavformat    56. 40.101 / 56. 40.101\n  libavdevice    56.  4.100 / 56.  4.100\n  libavfilter     5. 40.101 /  5. 40.101\n  libavresample   2.  1.  0 /  2.  1.  0\n  libswscale      3.  1.101 /  3.  1.101\n  libswresample   1.  2.101 /  1.  2.101\n  libpostproc    53.  3.100 / 53.  3.100\nInput #0, mov,mp4,m4a,3gp,3g2,mj2, from './audios/1563896674_127_666.mp3':\n  Metadata:\n    major_brand     : 3gp4\n    minor_version   : 0\n    compatible_brands: isom3gp4\n    creation_time   : 2019-07-23 15:44:25\n  Duration: 00:00:03.14, start: 0.000000, bitrate: 104 kb/s\n    Stream #0:0(eng): Audio: aac (LC) (mp4a / 0x6134706D), 16000 Hz, mono, fltp, 96 kb/s (default)\n    Metadata:\n      creation_time   : 2019-07-23 15:44:25\n      handler_name    : SoundHandle\nOutput #0, wav, to './wavs/1563896674_127_666.temp.wav':\n  Metadata:\n    major_brand     : 3gp4\n    minor_version   : 0\n    compatible_brands: isom3gp4\n    ISFT            : Lavf56.40.101\n    Stream #0:0(eng): Audio: pcm_s16le ([1][0][0][0] / 0x0001), 16000 Hz, mono, s16, 256 kb/s (default)\n    Metadata:\n      creation_time   : 2019-07-23 15:44:25\n      handler_name    : SoundHandle\n      encoder         : Lavc56.60.100 pcm_s16le\nStream mapping:\n  Stream #0:0 -> #0:0 (aac (native) -> pcm_s16le (native))\nPress [q] to stop, [?] for help\nsize=      98kB time=00:00:03.13 bitrate= 256.2kbits/s    \nvideo:0kB audio:98kB subtitle:0kB other streams:0kB global headers:0kB muxing overhead: 0.077726%\n"
2020-04-19 12:01:46,532 b''
2020-04-19 12:01:46,532 b"ffmpeg version 2.8.15-0ubuntu0.16.04.1 Copyright (c) 2000-2018 the FFmpeg developers\n  built with gcc 5.4.0 (Ubuntu 5.4.0-6ubuntu1~16.04.10) 20160609\n  configuration: --prefix=/usr --extra-version=0ubuntu0.16.04.1 --build-suffix=-ffmpeg --toolchain=hardened --libdir=/usr/lib/x86_64-linux-gnu --incdir=/usr/include/x86_64-linux-gnu --cc=cc --cxx=g++ --enable-gpl --enable-shared --disable-stripping --disable-decoder=libopenjpeg --disable-decoder=libschroedinger --enable-avresample --enable-avisynth --enable-gnutls --enable-ladspa --enable-libass --enable-libbluray --enable-libbs2b --enable-libcaca --enable-libcdio --enable-libflite --enable-libfontconfig --enable-libfreetype --enable-libfribidi --enable-libgme --enable-libgsm --enable-libmodplug --enable-libmp3lame --enable-libopenjpeg --enable-libopus --enable-libpulse --enable-librtmp --enable-libschroedinger --enable-libshine --enable-libsnappy --enable-libsoxr --enable-libspeex --enable-libssh --enable-libtheora --enable-libtwolame --enable-libvorbis --enable-libvpx --enable-libwavpack --enable-libwebp --enable-libx265 --enable-libxvid --enable-libzvbi --enable-openal --enable-opengl --enable-x11grab --enable-libdc1394 --enable-libiec61883 --enable-libzmq --enable-frei0r --enable-libx264 --enable-libopencv\n  libavutil      54. 31.100 / 54. 31.100\n  libavcodec     56. 60.100 / 56. 60.100\n  libavformat    56. 40.101 / 56. 40.101\n  libavdevice    56.  4.100 / 56.  4.100\n  libavfilter     5. 40.101 /  5. 40.101\n  libavresample   2.  1.  0 /  2.  1.  0\n  libswscale      3.  1.101 /  3.  1.101\n  libswresample   1.  2.101 /  1.  2.101\n  libpostproc    53.  3.100 / 53.  3.100\nInput #0, mov,mp4,m4a,3gp,3g2,mj2, from './audios/1563896721_127_155.mp3':\n  Metadata:\n    major_brand     : 3gp4\n    minor_version   : 0\n    compatible_brands: isom3gp4\n    creation_time   : 2019-07-23 15:45:07\n  Duration: 00:00:04.61, start: 0.000000, bitrate: 101 kb/s\n    Stream #0:0(eng): Audio: aac (LC) (mp4a / 0x6134706D), 16000 Hz, mono, fltp, 96 kb/s (default)\n    Metadata:\n      creation_time   : 2019-07-23 15:45:07\n      handler_name    : SoundHandle\nOutput #0, wav, to './wavs/1563896721_127_155.temp.wav':\n  Metadata:\n    major_brand     : 3gp4\n    minor_version   : 0\n    compatible_brands: isom3gp4\n    ISFT            : Lavf56.40.101\n    Stream #0:0(eng): Audio: pcm_s16le ([1][0][0][0] / 0x0001), 16000 Hz, mono, s16, 256 kb/s (default)\n    Metadata:\n      creation_time   : 2019-07-23 15:45:07\n      handler_name    : SoundHandle\n      encoder         : Lavc56.60.100 pcm_s16le\nStream mapping:\n  Stream #0:0 -> #0:0 (aac (native) -> pcm_s16le (native))\nPress [q] to stop, [?] for help\nsize=     144kB time=00:00:04.60 bitrate= 256.1kbits/s    \nvideo:0kB audio:144kB subtitle:0kB other streams:0kB global headers:0kB muxing overhead: 0.052897%\n"
2020-04-19 12:01:47,742 b''
2020-04-19 12:01:47,743 b"ffmpeg version 2.8.15-0ubuntu0.16.04.1 Copyright (c) 2000-2018 the FFmpeg developers\n  built with gcc 5.4.0 (Ubuntu 5.4.0-6ubuntu1~16.04.10) 20160609\n  configuration: --prefix=/usr --extra-version=0ubuntu0.16.04.1 --build-suffix=-ffmpeg --toolchain=hardened --libdir=/usr/lib/x86_64-linux-gnu --incdir=/usr/include/x86_64-linux-gnu --cc=cc --cxx=g++ --enable-gpl --enable-shared --disable-stripping --disable-decoder=libopenjpeg --disable-decoder=libschroedinger --enable-avresample --enable-avisynth --enable-gnutls --enable-ladspa --enable-libass --enable-libbluray --enable-libbs2b --enable-libcaca --enable-libcdio --enable-libflite --enable-libfontconfig --enable-libfreetype --enable-libfribidi --enable-libgme --enable-libgsm --enable-libmodplug --enable-libmp3lame --enable-libopenjpeg --enable-libopus --enable-libpulse --enable-librtmp --enable-libschroedinger --enable-libshine --enable-libsnappy --enable-libsoxr --enable-libspeex --enable-libssh --enable-libtheora --enable-libtwolame --enable-libvorbis --enable-libvpx --enable-libwavpack --enable-libwebp --enable-libx265 --enable-libxvid --enable-libzvbi --enable-openal --enable-opengl --enable-x11grab --enable-libdc1394 --enable-libiec61883 --enable-libzmq --enable-frei0r --enable-libx264 --enable-libopencv\n  libavutil      54. 31.100 / 54. 31.100\n  libavcodec     56. 60.100 / 56. 60.100\n  libavformat    56. 40.101 / 56. 40.101\n  libavdevice    56.  4.100 / 56.  4.100\n  libavfilter     5. 40.101 /  5. 40.101\n  libavresample   2.  1.  0 /  2.  1.  0\n  libswscale      3.  1.101 /  3.  1.101\n  libswresample   1.  2.101 /  1.  2.101\n  libpostproc    53.  3.100 / 53.  3.100\nInput #0, mov,mp4,m4a,3gp,3g2,mj2, from './audios/1563896753_127_545.mp3':\n  Metadata:\n    major_brand     : 3gp4\n    minor_version   : 0\n    compatible_brands: isom3gp4\n    creation_time   : 2019-07-23 15:45:37\n  Duration: 00:00:04.16, start: 0.000000, bitrate: 102 kb/s\n    Stream #0:0(eng): Audio: aac (LC) (mp4a / 0x6134706D), 16000 Hz, mono, fltp, 96 kb/s (default)\n    Metadata:\n      creation_time   : 2019-07-23 15:45:37\n      handler_name    : SoundHandle\nOutput #0, wav, to './wavs/1563896753_127_545.temp.wav':\n  Metadata:\n    major_brand     : 3gp4\n    minor_version   : 0\n    compatible_brands: isom3gp4\n    ISFT            : Lavf56.40.101\n    Stream #0:0(eng): Audio: pcm_s16le ([1][0][0][0] / 0x0001), 16000 Hz, mono, s16, 256 kb/s (default)\n    Metadata:\n      creation_time   : 2019-07-23 15:45:37\n      handler_name    : SoundHandle\n      encoder         : Lavc56.60.100 pcm_s16le\nStream mapping:\n  Stream #0:0 -> #0:0 (aac (native) -> pcm_s16le (native))\nPress [q] to stop, [?] for help\nsize=     130kB time=00:00:04.16 bitrate= 256.1kbits/s    \nvideo:0kB audio:130kB subtitle:0kB other streams:0kB global headers:0kB muxing overhead: 0.058594%\n"
2020-04-19 12:01:52,105 b''
2020-04-19 12:01:52,105 b"ffmpeg version 2.8.15-0ubuntu0.16.04.1 Copyright (c) 2000-2018 the FFmpeg developers\n  built with gcc 5.4.0 (Ubuntu 5.4.0-6ubuntu1~16.04.10) 20160609\n  configuration: --prefix=/usr --extra-version=0ubuntu0.16.04.1 --build-suffix=-ffmpeg --toolchain=hardened --libdir=/usr/lib/x86_64-linux-gnu --incdir=/usr/include/x86_64-linux-gnu --cc=cc --cxx=g++ --enable-gpl --enable-shared --disable-stripping --disable-decoder=libopenjpeg --disable-decoder=libschroedinger --enable-avresample --enable-avisynth --enable-gnutls --enable-ladspa --enable-libass --enable-libbluray --enable-libbs2b --enable-libcaca --enable-libcdio --enable-libflite --enable-libfontconfig --enable-libfreetype --enable-libfribidi --enable-libgme --enable-libgsm --enable-libmodplug --enable-libmp3lame --enable-libopenjpeg --enable-libopus --enable-libpulse --enable-librtmp --enable-libschroedinger --enable-libshine --enable-libsnappy --enable-libsoxr --enable-libspeex --enable-libssh --enable-libtheora --enable-libtwolame --enable-libvorbis --enable-libvpx --enable-libwavpack --enable-libwebp --enable-libx265 --enable-libxvid --enable-libzvbi --enable-openal --enable-opengl --enable-x11grab --enable-libdc1394 --enable-libiec61883 --enable-libzmq --enable-frei0r --enable-libx264 --enable-libopencv\n  libavutil      54. 31.100 / 54. 31.100\n  libavcodec     56. 60.100 / 56. 60.100\n  libavformat    56. 40.101 / 56. 40.101\n  libavdevice    56.  4.100 / 56.  4.100\n  libavfilter     5. 40.101 /  5. 40.101\n  libavresample   2.  1.  0 /  2.  1.  0\n  libswscale      3.  1.101 /  3.  1.101\n  libswresample   1.  2.101 /  1.  2.101\n  libpostproc    53.  3.100 / 53.  3.100\nInput #0, mov,mp4,m4a,3gp,3g2,mj2, from './audios/1563896780_127_626.mp3':\n  Metadata:\n    major_brand     : 3gp4\n    minor_version   : 0\n    compatible_brands: isom3gp4\n    creation_time   : 2019-07-23 15:46:10\n  Duration: 00:00:04.80, start: 0.000000, bitrate: 101 kb/s\n    Stream #0:0(eng): Audio: aac (LC) (mp4a / 0x6134706D), 16000 Hz, mono, fltp, 96 kb/s (default)\n    Metadata:\n      creation_time   : 2019-07-23 15:46:10\n      handler_name    : SoundHandle\nOutput #0, wav, to './wavs/1563896780_127_626.temp.wav':\n  Metadata:\n    major_brand     : 3gp4\n    minor_version   : 0\n    compatible_brands: isom3gp4\n    ISFT            : Lavf56.40.101\n    Stream #0:0(eng): Audio: pcm_s16le ([1][0][0][0] / 0x0001), 16000 Hz, mono, s16, 256 kb/s (default)\n    Metadata:\n      creation_time   : 2019-07-23 15:46:10\n      handler_name    : SoundHandle\n      encoder         : Lavc56.60.100 pcm_s16le\nStream mapping:\n  Stream #0:0 -> #0:0 (aac (native) -> pcm_s16le (native))\nPress [q] to stop, [?] for help\nsize=     150kB time=00:00:04.80 bitrate= 256.1kbits/s    \nvideo:0kB audio:150kB subtitle:0kB other streams:0kB global headers:0kB muxing overhead: 0.050781%\n"
2020-04-19 12:01:53,246 b''
2020-04-19 12:01:53,246 b"ffmpeg version 2.8.15-0ubuntu0.16.04.1 Copyright (c) 2000-2018 the FFmpeg developers\n  built with gcc 5.4.0 (Ubuntu 5.4.0-6ubuntu1~16.04.10) 20160609\n  configuration: --prefix=/usr --extra-version=0ubuntu0.16.04.1 --build-suffix=-ffmpeg --toolchain=hardened --libdir=/usr/lib/x86_64-linux-gnu --incdir=/usr/include/x86_64-linux-gnu --cc=cc --cxx=g++ --enable-gpl --enable-shared --disable-stripping --disable-decoder=libopenjpeg --disable-decoder=libschroedinger --enable-avresample --enable-avisynth --enable-gnutls --enable-ladspa --enable-libass --enable-libbluray --enable-libbs2b --enable-libcaca --enable-libcdio --enable-libflite --enable-libfontconfig --enable-libfreetype --enable-libfribidi --enable-libgme --enable-libgsm --enable-libmodplug --enable-libmp3lame --enable-libopenjpeg --enable-libopus --enable-libpulse --enable-librtmp --enable-libschroedinger --enable-libshine --enable-libsnappy --enable-libsoxr --enable-libspeex --enable-libssh --enable-libtheora --enable-libtwolame --enable-libvorbis --enable-libvpx --enable-libwavpack --enable-libwebp --enable-libx265 --enable-libxvid --enable-libzvbi --enable-openal --enable-opengl --enable-x11grab --enable-libdc1394 --enable-libiec61883 --enable-libzmq --enable-frei0r --enable-libx264 --enable-libopencv\n  libavutil      54. 31.100 / 54. 31.100\n  libavcodec     56. 60.100 / 56. 60.100\n  libavformat    56. 40.101 / 56. 40.101\n  libavdevice    56.  4.100 / 56.  4.100\n  libavfilter     5. 40.101 /  5. 40.101\n  libavresample   2.  1.  0 /  2.  1.  0\n  libswscale      3.  1.101 /  3.  1.101\n  libswresample   1.  2.101 /  1.  2.101\n  libpostproc    53.  3.100 / 53.  3.100\nInput #0, mov,mp4,m4a,3gp,3g2,mj2, from './audios/1563896805_127_43.mp3':\n  Metadata:\n    major_brand     : 3gp4\n    minor_version   : 0\n    compatible_brands: isom3gp4\n    creation_time   : 2019-07-23 15:46:38\n  Duration: 00:00:03.01, start: 0.000000, bitrate: 104 kb/s\n    Stream #0:0(eng): Audio: aac (LC) (mp4a / 0x6134706D), 16000 Hz, mono, fltp, 96 kb/s (default)\n    Metadata:\n      creation_time   : 2019-07-23 15:46:38\n      handler_name    : SoundHandle\nOutput #0, wav, to './wavs/1563896805_127_43.temp.wav':\n  Metadata:\n    major_brand     : 3gp4\n    minor_version   : 0\n    compatible_brands: isom3gp4\n    ISFT            : Lavf56.40.101\n    Stream #0:0(eng): Audio: pcm_s16le ([1][0][0][0] / 0x0001), 16000 Hz, mono, s16, 256 kb/s (default)\n    Metadata:\n      creation_time   : 2019-07-23 15:46:38\n      handler_name    : SoundHandle\n      encoder         : Lavc56.60.100 pcm_s16le\nStream mapping:\n  Stream #0:0 -> #0:0 (aac (native) -> pcm_s16le (native))\nPress [q] to stop, [?] for help\nsize=      94kB time=00:00:03.00 bitrate= 256.2kbits/s    \nvideo:0kB audio:94kB subtitle:0kB other streams:0kB global headers:0kB muxing overhead: 0.081034%\n"
2020-04-19 12:01:54,478 b''
2020-04-19 12:01:54,478 b"ffmpeg version 2.8.15-0ubuntu0.16.04.1 Copyright (c) 2000-2018 the FFmpeg developers\n  built with gcc 5.4.0 (Ubuntu 5.4.0-6ubuntu1~16.04.10) 20160609\n  configuration: --prefix=/usr --extra-version=0ubuntu0.16.04.1 --build-suffix=-ffmpeg --toolchain=hardened --libdir=/usr/lib/x86_64-linux-gnu --incdir=/usr/include/x86_64-linux-gnu --cc=cc --cxx=g++ --enable-gpl --enable-shared --disable-stripping --disable-decoder=libopenjpeg --disable-decoder=libschroedinger --enable-avresample --enable-avisynth --enable-gnutls --enable-ladspa --enable-libass --enable-libbluray --enable-libbs2b --enable-libcaca --enable-libcdio --enable-libflite --enable-libfontconfig --enable-libfreetype --enable-libfribidi --enable-libgme --enable-libgsm --enable-libmodplug --enable-libmp3lame --enable-libopenjpeg --enable-libopus --enable-libpulse --enable-librtmp --enable-libschroedinger --enable-libshine --enable-libsnappy --enable-libsoxr --enable-libspeex --enable-libssh --enable-libtheora --enable-libtwolame --enable-libvorbis --enable-libvpx --enable-libwavpack --enable-libwebp --enable-libx265 --enable-libxvid --enable-libzvbi --enable-openal --enable-opengl --enable-x11grab --enable-libdc1394 --enable-libiec61883 --enable-libzmq --enable-frei0r --enable-libx264 --enable-libopencv\n  libavutil      54. 31.100 / 54. 31.100\n  libavcodec     56. 60.100 / 56. 60.100\n  libavformat    56. 40.101 / 56. 40.101\n  libavdevice    56.  4.100 / 56.  4.100\n  libavfilter     5. 40.101 /  5. 40.101\n  libavresample   2.  1.  0 /  2.  1.  0\n  libswscale      3.  1.101 /  3.  1.101\n  libswresample   1.  2.101 /  1.  2.101\n  libpostproc    53.  3.100 / 53.  3.100\nInput #0, mov,mp4,m4a,3gp,3g2,mj2, from './audios/1563896867_127_625.mp3':\n  Metadata:\n    major_brand     : 3gp4\n    minor_version   : 0\n    compatible_brands: isom3gp4\n    creation_time   : 2019-07-23 15:47:34\n  Duration: 00:00:04.16, start: 0.000000, bitrate: 102 kb/s\n    Stream #0:0(eng): Audio: aac (LC) (mp4a / 0x6134706D), 16000 Hz, mono, fltp, 96 kb/s (default)\n    Metadata:\n      creation_time   : 2019-07-23 15:47:34\n      handler_name    : SoundHandle\nOutput #0, wav, to './wavs/1563896867_127_625.temp.wav':\n  Metadata:\n    major_brand     : 3gp4\n    minor_version   : 0\n    compatible_brands: isom3gp4\n    ISFT            : Lavf56.40.101\n    Stream #0:0(eng): Audio: pcm_s16le ([1][0][0][0] / 0x0001), 16000 Hz, mono, s16, 256 kb/s (default)\n    Metadata:\n      creation_time   : 2019-07-23 15:47:34\n      handler_name    : SoundHandle\n      encoder         : Lavc56.60.100 pcm_s16le\nStream mapping:\n  Stream #0:0 -> #0:0 (aac (native) -> pcm_s16le (native))\nPress [q] to stop, [?] for help\nsize=     130kB time=00:00:04.16 bitrate= 256.1kbits/s    \nvideo:0kB audio:130kB subtitle:0kB other streams:0kB global headers:0kB muxing overhead: 0.058594%\n"
2020-04-19 12:01:56,175 b''
2020-04-19 12:01:56,176 b"ffmpeg version 2.8.15-0ubuntu0.16.04.1 Copyright (c) 2000-2018 the FFmpeg developers\n  built with gcc 5.4.0 (Ubuntu 5.4.0-6ubuntu1~16.04.10) 20160609\n  configuration: --prefix=/usr --extra-version=0ubuntu0.16.04.1 --build-suffix=-ffmpeg --toolchain=hardened --libdir=/usr/lib/x86_64-linux-gnu --incdir=/usr/include/x86_64-linux-gnu --cc=cc --cxx=g++ --enable-gpl --enable-shared --disable-stripping --disable-decoder=libopenjpeg --disable-decoder=libschroedinger --enable-avresample --enable-avisynth --enable-gnutls --enable-ladspa --enable-libass --enable-libbluray --enable-libbs2b --enable-libcaca --enable-libcdio --enable-libflite --enable-libfontconfig --enable-libfreetype --enable-libfribidi --enable-libgme --enable-libgsm --enable-libmodplug --enable-libmp3lame --enable-libopenjpeg --enable-libopus --enable-libpulse --enable-librtmp --enable-libschroedinger --enable-libshine --enable-libsnappy --enable-libsoxr --enable-libspeex --enable-libssh --enable-libtheora --enable-libtwolame --enable-libvorbis --enable-libvpx --enable-libwavpack --enable-libwebp --enable-libx265 --enable-libxvid --enable-libzvbi --enable-openal --enable-opengl --enable-x11grab --enable-libdc1394 --enable-libiec61883 --enable-libzmq --enable-frei0r --enable-libx264 --enable-libopencv\n  libavutil      54. 31.100 / 54. 31.100\n  libavcodec     56. 60.100 / 56. 60.100\n  libavformat    56. 40.101 / 56. 40.101\n  libavdevice    56.  4.100 / 56.  4.100\n  libavfilter     5. 40.101 /  5. 40.101\n  libavresample   2.  1.  0 /  2.  1.  0\n  libswscale      3.  1.101 /  3.  1.101\n  libswresample   1.  2.101 /  1.  2.101\n  libpostproc    53.  3.100 / 53.  3.100\nInput #0, mov,mp4,m4a,3gp,3g2,mj2, from './audios/1563896898_127_50.mp3':\n  Metadata:\n    major_brand     : 3gp4\n    minor_version   : 0\n    compatible_brands: isom3gp4\n    creation_time   : 2019-07-23 15:48:07\n  Duration: 00:00:06.02, start: 0.000000, bitrate: 100 kb/s\n    Stream #0:0(eng): Audio: aac (LC) (mp4a / 0x6134706D), 16000 Hz, mono, fltp, 96 kb/s (default)\n    Metadata:\n      creation_time   : 2019-07-23 15:48:07\n      handler_name    : SoundHandle\nOutput #0, wav, to './wavs/1563896898_127_50.temp.wav':\n  Metadata:\n    major_brand     : 3gp4\n    minor_version   : 0\n    compatible_brands: isom3gp4\n    ISFT            : Lavf56.40.101\n    Stream #0:0(eng): Audio: pcm_s16le ([1][0][0][0] / 0x0001), 16000 Hz, mono, s16, 256 kb/s (default)\n    Metadata:\n      creation_time   : 2019-07-23 15:48:07\n      handler_name    : SoundHandle\n      encoder         : Lavc56.60.100 pcm_s16le\nStream mapping:\n  Stream #0:0 -> #0:0 (aac (native) -> pcm_s16le (native))\nPress [q] to stop, [?] for help\nsize=     188kB time=00:00:06.01 bitrate= 256.1kbits/s    \nvideo:0kB audio:188kB subtitle:0kB other streams:0kB global headers:0kB muxing overhead: 0.040517%\n"
2020-04-19 12:01:57,962 b''
2020-04-19 12:01:57,963 b"ffmpeg version 2.8.15-0ubuntu0.16.04.1 Copyright (c) 2000-2018 the FFmpeg developers\n  built with gcc 5.4.0 (Ubuntu 5.4.0-6ubuntu1~16.04.10) 20160609\n  configuration: --prefix=/usr --extra-version=0ubuntu0.16.04.1 --build-suffix=-ffmpeg --toolchain=hardened --libdir=/usr/lib/x86_64-linux-gnu --incdir=/usr/include/x86_64-linux-gnu --cc=cc --cxx=g++ --enable-gpl --enable-shared --disable-stripping --disable-decoder=libopenjpeg --disable-decoder=libschroedinger --enable-avresample --enable-avisynth --enable-gnutls --enable-ladspa --enable-libass --enable-libbluray --enable-libbs2b --enable-libcaca --enable-libcdio --enable-libflite --enable-libfontconfig --enable-libfreetype --enable-libfribidi --enable-libgme --enable-libgsm --enable-libmodplug --enable-libmp3lame --enable-libopenjpeg --enable-libopus --enable-libpulse --enable-librtmp --enable-libschroedinger --enable-libshine --enable-libsnappy --enable-libsoxr --enable-libspeex --enable-libssh --enable-libtheora --enable-libtwolame --enable-libvorbis --enable-libvpx --enable-libwavpack --enable-libwebp --enable-libx265 --enable-libxvid --enable-libzvbi --enable-openal --enable-opengl --enable-x11grab --enable-libdc1394 --enable-libiec61883 --enable-libzmq --enable-frei0r --enable-libx264 --enable-libopencv\n  libavutil      54. 31.100 / 54. 31.100\n  libavcodec     56. 60.100 / 56. 60.100\n  libavformat    56. 40.101 / 56. 40.101\n  libavdevice    56.  4.100 / 56.  4.100\n  libavfilter     5. 40.101 /  5. 40.101\n  libavresample   2.  1.  0 /  2.  1.  0\n  libswscale      3.  1.101 /  3.  1.101\n  libswresample   1.  2.101 /  1.  2.101\n  libpostproc    53.  3.100 / 53.  3.100\nInput #0, mov,mp4,m4a,3gp,3g2,mj2, from './audios/1563896927_127_214.mp3':\n  Metadata:\n    major_brand     : 3gp4\n    minor_version   : 0\n    compatible_brands: isom3gp4\n    creation_time   : 2019-07-23 15:48:32\n  Duration: 00:00:02.82, start: 0.000000, bitrate: 105 kb/s\n    Stream #0:0(eng): Audio: aac (LC) (mp4a / 0x6134706D), 16000 Hz, mono, fltp, 96 kb/s (default)\n    Metadata:\n      creation_time   : 2019-07-23 15:48:32\n      handler_name    : SoundHandle\nOutput #0, wav, to './wavs/1563896927_127_214.temp.wav':\n  Metadata:\n    major_brand     : 3gp4\n    minor_version   : 0\n    compatible_brands: isom3gp4\n    ISFT            : Lavf56.40.101\n    Stream #0:0(eng): Audio: pcm_s16le ([1][0][0][0] / 0x0001), 16000 Hz, mono, s16, 256 kb/s (default)\n    Metadata:\n      creation_time   : 2019-07-23 15:48:32\n      handler_name    : SoundHandle\n      encoder         : Lavc56.60.100 pcm_s16le\nStream mapping:\n  Stream #0:0 -> #0:0 (aac (native) -> pcm_s16le (native))\nPress [q] to stop, [?] for help\nsize=      88kB time=00:00:02.81 bitrate= 256.2kbits/s    \nvideo:0kB audio:88kB subtitle:0kB other streams:0kB global headers:0kB muxing overhead: 0.086559%\n"
2020-04-19 12:01:59,110 b''
2020-04-19 12:01:59,111 b"ffmpeg version 2.8.15-0ubuntu0.16.04.1 Copyright (c) 2000-2018 the FFmpeg developers\n  built with gcc 5.4.0 (Ubuntu 5.4.0-6ubuntu1~16.04.10) 20160609\n  configuration: --prefix=/usr --extra-version=0ubuntu0.16.04.1 --build-suffix=-ffmpeg --toolchain=hardened --libdir=/usr/lib/x86_64-linux-gnu --incdir=/usr/include/x86_64-linux-gnu --cc=cc --cxx=g++ --enable-gpl --enable-shared --disable-stripping --disable-decoder=libopenjpeg --disable-decoder=libschroedinger --enable-avresample --enable-avisynth --enable-gnutls --enable-ladspa --enable-libass --enable-libbluray --enable-libbs2b --enable-libcaca --enable-libcdio --enable-libflite --enable-libfontconfig --enable-libfreetype --enable-libfribidi --enable-libgme --enable-libgsm --enable-libmodplug --enable-libmp3lame --enable-libopenjpeg --enable-libopus --enable-libpulse --enable-librtmp --enable-libschroedinger --enable-libshine --enable-libsnappy --enable-libsoxr --enable-libspeex --enable-libssh --enable-libtheora --enable-libtwolame --enable-libvorbis --enable-libvpx --enable-libwavpack --enable-libwebp --enable-libx265 --enable-libxvid --enable-libzvbi --enable-openal --enable-opengl --enable-x11grab --enable-libdc1394 --enable-libiec61883 --enable-libzmq --enable-frei0r --enable-libx264 --enable-libopencv\n  libavutil      54. 31.100 / 54. 31.100\n  libavcodec     56. 60.100 / 56. 60.100\n  libavformat    56. 40.101 / 56. 40.101\n  libavdevice    56.  4.100 / 56.  4.100\n  libavfilter     5. 40.101 /  5. 40.101\n  libavresample   2.  1.  0 /  2.  1.  0\n  libswscale      3.  1.101 /  3.  1.101\n  libswresample   1.  2.101 /  1.  2.101\n  libpostproc    53.  3.100 / 53.  3.100\nInput #0, mov,mp4,m4a,3gp,3g2,mj2, from './audios/1563897004_127_134.mp3':\n  Metadata:\n    major_brand     : 3gp4\n    minor_version   : 0\n    compatible_brands: isom3gp4\n    creation_time   : 2019-07-23 15:49:54\n  Duration: 00:00:05.50, start: 0.000000, bitrate: 100 kb/s\n    Stream #0:0(eng): Audio: aac (LC) (mp4a / 0x6134706D), 16000 Hz, mono, fltp, 96 kb/s (default)\n    Metadata:\n      creation_time   : 2019-07-23 15:49:54\n      handler_name    : SoundHandle\nOutput #0, wav, to './wavs/1563897004_127_134.temp.wav':\n  Metadata:\n    major_brand     : 3gp4\n    minor_version   : 0\n    compatible_brands: isom3gp4\n    ISFT            : Lavf56.40.101\n    Stream #0:0(eng): Audio: pcm_s16le ([1][0][0][0] / 0x0001), 16000 Hz, mono, s16, 256 kb/s (default)\n    Metadata:\n      creation_time   : 2019-07-23 15:49:54\n      handler_name    : SoundHandle\n      encoder         : Lavc56.60.100 pcm_s16le\nStream mapping:\n  Stream #0:0 -> #0:0 (aac (native) -> pcm_s16le (native))\nPress [q] to stop, [?] for help\nsize=     172kB time=00:00:05.50 bitrate= 256.1kbits/s    \nvideo:0kB audio:172kB subtitle:0kB other streams:0kB global headers:0kB muxing overhead: 0.044286%\n"
2020-04-19 12:02:00,311 b''
2020-04-19 12:02:00,312 b"ffmpeg version 2.8.15-0ubuntu0.16.04.1 Copyright (c) 2000-2018 the FFmpeg developers\n  built with gcc 5.4.0 (Ubuntu 5.4.0-6ubuntu1~16.04.10) 20160609\n  configuration: --prefix=/usr --extra-version=0ubuntu0.16.04.1 --build-suffix=-ffmpeg --toolchain=hardened --libdir=/usr/lib/x86_64-linux-gnu --incdir=/usr/include/x86_64-linux-gnu --cc=cc --cxx=g++ --enable-gpl --enable-shared --disable-stripping --disable-decoder=libopenjpeg --disable-decoder=libschroedinger --enable-avresample --enable-avisynth --enable-gnutls --enable-ladspa --enable-libass --enable-libbluray --enable-libbs2b --enable-libcaca --enable-libcdio --enable-libflite --enable-libfontconfig --enable-libfreetype --enable-libfribidi --enable-libgme --enable-libgsm --enable-libmodplug --enable-libmp3lame --enable-libopenjpeg --enable-libopus --enable-libpulse --enable-librtmp --enable-libschroedinger --enable-libshine --enable-libsnappy --enable-libsoxr --enable-libspeex --enable-libssh --enable-libtheora --enable-libtwolame --enable-libvorbis --enable-libvpx --enable-libwavpack --enable-libwebp --enable-libx265 --enable-libxvid --enable-libzvbi --enable-openal --enable-opengl --enable-x11grab --enable-libdc1394 --enable-libiec61883 --enable-libzmq --enable-frei0r --enable-libx264 --enable-libopencv\n  libavutil      54. 31.100 / 54. 31.100\n  libavcodec     56. 60.100 / 56. 60.100\n  libavformat    56. 40.101 / 56. 40.101\n  libavdevice    56.  4.100 / 56.  4.100\n  libavfilter     5. 40.101 /  5. 40.101\n  libavresample   2.  1.  0 /  2.  1.  0\n  libswscale      3.  1.101 /  3.  1.101\n  libswresample   1.  2.101 /  1.  2.101\n  libpostproc    53.  3.100 / 53.  3.100\nInput #0, mov,mp4,m4a,3gp,3g2,mj2, from './audios/1564502400_127_211.mp3':\n  Metadata:\n    major_brand     : 3gp4\n    minor_version   : 0\n    compatible_brands: isom3gp4\n    creation_time   : 2019-07-30 15:59:50\n  Duration: 00:00:04.93, start: 0.000000, bitrate: 101 kb/s\n    Stream #0:0(eng): Audio: aac (LC) (mp4a / 0x6134706D), 16000 Hz, mono, fltp, 96 kb/s (default)\n    Metadata:\n      creation_time   : 2019-07-30 15:59:50\n      handler_name    : SoundHandle\nOutput #0, wav, to './wavs/1564502400_127_211.temp.wav':\n  Metadata:\n    major_brand     : 3gp4\n    minor_version   : 0\n    compatible_brands: isom3gp4\n    ISFT            : Lavf56.40.101\n    Stream #0:0(eng): Audio: pcm_s16le ([1][0][0][0] / 0x0001), 16000 Hz, mono, s16, 256 kb/s (default)\n    Metadata:\n      creation_time   : 2019-07-30 15:59:50\n      handler_name    : SoundHandle\n      encoder         : Lavc56.60.100 pcm_s16le\nStream mapping:\n  Stream #0:0 -> #0:0 (aac (native) -> pcm_s16le (native))\nPress [q] to stop, [?] for help\nsize=     154kB time=00:00:04.92 bitrate= 256.1kbits/s    \nvideo:0kB audio:154kB subtitle:0kB other streams:0kB global headers:0kB muxing overhead: 0.049462%\n"
2020-04-19 12:02:01,384 b''
2020-04-19 12:02:01,384 b"ffmpeg version 2.8.15-0ubuntu0.16.04.1 Copyright (c) 2000-2018 the FFmpeg developers\n  built with gcc 5.4.0 (Ubuntu 5.4.0-6ubuntu1~16.04.10) 20160609\n  configuration: --prefix=/usr --extra-version=0ubuntu0.16.04.1 --build-suffix=-ffmpeg --toolchain=hardened --libdir=/usr/lib/x86_64-linux-gnu --incdir=/usr/include/x86_64-linux-gnu --cc=cc --cxx=g++ --enable-gpl --enable-shared --disable-stripping --disable-decoder=libopenjpeg --disable-decoder=libschroedinger --enable-avresample --enable-avisynth --enable-gnutls --enable-ladspa --enable-libass --enable-libbluray --enable-libbs2b --enable-libcaca --enable-libcdio --enable-libflite --enable-libfontconfig --enable-libfreetype --enable-libfribidi --enable-libgme --enable-libgsm --enable-libmodplug --enable-libmp3lame --enable-libopenjpeg --enable-libopus --enable-libpulse --enable-librtmp --enable-libschroedinger --enable-libshine --enable-libsnappy --enable-libsoxr --enable-libspeex --enable-libssh --enable-libtheora --enable-libtwolame --enable-libvorbis --enable-libvpx --enable-libwavpack --enable-libwebp --enable-libx265 --enable-libxvid --enable-libzvbi --enable-openal --enable-opengl --enable-x11grab --enable-libdc1394 --enable-libiec61883 --enable-libzmq --enable-frei0r --enable-libx264 --enable-libopencv\n  libavutil      54. 31.100 / 54. 31.100\n  libavcodec     56. 60.100 / 56. 60.100\n  libavformat    56. 40.101 / 56. 40.101\n  libavdevice    56.  4.100 / 56.  4.100\n  libavfilter     5. 40.101 /  5. 40.101\n  libavresample   2.  1.  0 /  2.  1.  0\n  libswscale      3.  1.101 /  3.  1.101\n  libswresample   1.  2.101 /  1.  2.101\n  libpostproc    53.  3.100 / 53.  3.100\nInput #0, mov,mp4,m4a,3gp,3g2,mj2, from './audios/1564502465_127_431.mp3':\n  Metadata:\n    major_brand     : 3gp4\n    minor_version   : 0\n    compatible_brands: isom3gp4\n    creation_time   : 2019-07-30 16:00:49\n  Duration: 00:00:03.84, start: 0.000000, bitrate: 102 kb/s\n    Stream #0:0(eng): Audio: aac (LC) (mp4a / 0x6134706D), 16000 Hz, mono, fltp, 96 kb/s (default)\n    Metadata:\n      creation_time   : 2019-07-30 16:00:49\n      handler_name    : SoundHandle\nOutput #0, wav, to './wavs/1564502465_127_431.temp.wav':\n  Metadata:\n    major_brand     : 3gp4\n    minor_version   : 0\n    compatible_brands: isom3gp4\n    ISFT            : Lavf56.40.101\n    Stream #0:0(eng): Audio: pcm_s16le ([1][0][0][0] / 0x0001), 16000 Hz, mono, s16, 256 kb/s (default)\n    Metadata:\n      creation_time   : 2019-07-30 16:00:49\n      handler_name    : SoundHandle\n      encoder         : Lavc56.60.100 pcm_s16le\nStream mapping:\n  Stream #0:0 -> #0:0 (aac (native) -> pcm_s16le (native))\nPress [q] to stop, [?] for help\nsize=     120kB time=00:00:03.84 bitrate= 256.2kbits/s    \nvideo:0kB audio:120kB subtitle:0kB other streams:0kB global headers:0kB muxing overhead: 0.063477%\n"
2020-04-19 12:02:02,532 b''
2020-04-19 12:02:02,532 b"ffmpeg version 2.8.15-0ubuntu0.16.04.1 Copyright (c) 2000-2018 the FFmpeg developers\n  built with gcc 5.4.0 (Ubuntu 5.4.0-6ubuntu1~16.04.10) 20160609\n  configuration: --prefix=/usr --extra-version=0ubuntu0.16.04.1 --build-suffix=-ffmpeg --toolchain=hardened --libdir=/usr/lib/x86_64-linux-gnu --incdir=/usr/include/x86_64-linux-gnu --cc=cc --cxx=g++ --enable-gpl --enable-shared --disable-stripping --disable-decoder=libopenjpeg --disable-decoder=libschroedinger --enable-avresample --enable-avisynth --enable-gnutls --enable-ladspa --enable-libass --enable-libbluray --enable-libbs2b --enable-libcaca --enable-libcdio --enable-libflite --enable-libfontconfig --enable-libfreetype --enable-libfribidi --enable-libgme --enable-libgsm --enable-libmodplug --enable-libmp3lame --enable-libopenjpeg --enable-libopus --enable-libpulse --enable-librtmp --enable-libschroedinger --enable-libshine --enable-libsnappy --enable-libsoxr --enable-libspeex --enable-libssh --enable-libtheora --enable-libtwolame --enable-libvorbis --enable-libvpx --enable-libwavpack --enable-libwebp --enable-libx265 --enable-libxvid --enable-libzvbi --enable-openal --enable-opengl --enable-x11grab --enable-libdc1394 --enable-libiec61883 --enable-libzmq --enable-frei0r --enable-libx264 --enable-libopencv\n  libavutil      54. 31.100 / 54. 31.100\n  libavcodec     56. 60.100 / 56. 60.100\n  libavformat    56. 40.101 / 56. 40.101\n  libavdevice    56.  4.100 / 56.  4.100\n  libavfilter     5. 40.101 /  5. 40.101\n  libavresample   2.  1.  0 /  2.  1.  0\n  libswscale      3.  1.101 /  3.  1.101\n  libswresample   1.  2.101 /  1.  2.101\n  libpostproc    53.  3.100 / 53.  3.100\nInput #0, mov,mp4,m4a,3gp,3g2,mj2, from './audios/1564502490_127_467.mp3':\n  Metadata:\n    major_brand     : 3gp4\n    minor_version   : 0\n    compatible_brands: isom3gp4\n    creation_time   : 2019-07-30 16:01:22\n  Duration: 00:00:03.26, start: 0.000000, bitrate: 103 kb/s\n    Stream #0:0(eng): Audio: aac (LC) (mp4a / 0x6134706D), 16000 Hz, mono, fltp, 96 kb/s (default)\n    Metadata:\n      creation_time   : 2019-07-30 16:01:22\n      handler_name    : SoundHandle\nOutput #0, wav, to './wavs/1564502490_127_467.temp.wav':\n  Metadata:\n    major_brand     : 3gp4\n    minor_version   : 0\n    compatible_brands: isom3gp4\n    ISFT            : Lavf56.40.101\n    Stream #0:0(eng): Audio: pcm_s16le ([1][0][0][0] / 0x0001), 16000 Hz, mono, s16, 256 kb/s (default)\n    Metadata:\n      creation_time   : 2019-07-30 16:01:22\n      handler_name    : SoundHandle\n      encoder         : Lavc56.60.100 pcm_s16le\nStream mapping:\n  Stream #0:0 -> #0:0 (aac (native) -> pcm_s16le (native))\nPress [q] to stop, [?] for help\nsize=     102kB time=00:00:03.26 bitrate= 256.2kbits/s    \nvideo:0kB audio:102kB subtitle:0kB other streams:0kB global headers:0kB muxing overhead: 0.074678%\n"
